<?xml version='1.0' encoding='utf-8'?>
<svg xmlns="http://www.w3.org/2000/svg" version="1.1" width="600px" height="976px" viewBox="0 0 600 976"> <g id="layer1"> <g style="fill:rgb(255,213,68); fill-opacity:1.0; stroke-linejoin: miter"> <path d="M300.11334,340.97958Q237.69022,342.07178,194.10617,384.7273Q150.89806,428.97644,150.0,490.7828Q150.7829,552.61255,193.7893,596.9152Q238.4801,640.2457,299.68372,640.9797Q362.10956,639.97327,405.75873,597.3671Q449.029,553.1629,450.0,491.35645Q449.28894,429.52734,406.34558,385.179Q361.7221,341.8002,300.51965,340.98016"/> </g> <g style="fill:rgb(181,94,40); fill-opacity:1.0; stroke-linejoin: miter"> <path d="M300.10992,348.42102Q240.74527,349.466,199.32549,390.03192Q158.27597,432.10162,157.44136,490.84216Q158.20497,549.6035,199.10268,591.70465Q241.60895,632.8825,299.8206,633.53827Q359.1862,632.52264,400.62827,591.9736Q441.69904,549.91925,442.55865,491.17865Q441.8196,432.41766,400.9435,390.30093Q358.46033,349.10645,300.24905,348.42108"/> </g> <g style="fill:rgb(255,213,68); fill-opacity:1.0; stroke-linejoin: miter"> <path d="M300.0937,366.9867Q248.49356,367.88953,212.46616,403.1494Q176.74951,439.72662,176.00716,490.81693Q176.65431,541.92664,212.20422,578.54803Q249.14648,614.3659,299.73856,614.9726Q351.34094,614.1406,387.42218,578.9215Q423.19022,542.38153,423.99286,491.29114Q423.4051,440.182,387.9073,403.52277Q351.02066,367.66504,300.42957,366.98718"/> </g> <g style="fill:rgb(181,94,40); fill-opacity:1.0; stroke-linejoin: miter"> <path d="M263.19223,577.86255L263.19223,562.3058L244.11324,562.3058L225.03424,562.3058L225.03424,552.09125L225.03424,541.8179L234.36829,541.6418C244.58286,541.46564,245.34602,541.2309,248.16385,537.41504C249.39664,535.8301,249.39664,535.18427,249.51407,491.97766C249.69019,444.7204,249.80759,446.4815,246.57883,444.07465C245.0525,442.95923,244.11324,442.84186,236.89258,442.84186L228.90875,442.84186L227.26501,433.15558C226.38445,427.81342,225.56259,422.76483,225.38647,421.88428L225.09296,420.24054L244.11324,420.24054L263.19223,420.24054L263.19223,404.3903L263.19223,388.54004L272.87848,388.54004L282.56476,388.54004L282.56476,404.09677L282.56476,419.6535L289.9028,419.6535L297.24088,419.6535L297.24088,404.09677L297.24088,388.54004L306.92712,388.54004L316.6134,388.54004L316.73083,404.27286L316.90692,419.94702L322.1903,420.3579C347.0811,422.35388,362.22687,429.9855,368.86047,443.78113C374.37872,455.28717,374.96576,471.3136,370.15198,481.46948C366.8058,488.6902,360.40704,493.9736,351.2491,497.14368L346.55276,498.7874L349.0183,500.255C355.0062,503.7186,360.46576,511.7024,361.81598,518.8057C363.3423,526.78955,361.81598,537.00415,358.29367,543.2268C357.29565,544.92926,354.8301,547.9232,352.71674,549.8605C346.3766,555.7896,337.21872,559.4293,323.3644,561.48395L316.6134,562.5406L316.6134,577.98L316.6134,593.41925L306.92712,593.41925L297.24088,593.41925L297.24088,578.5083L297.24088,563.656L293.30768,563.3038C291.0769,563.069,287.78943,562.8928,285.9696,562.8928L282.56476,562.8928L282.56476,578.15607L282.56476,593.41925L272.87848,593.41925L263.19223,593.41925L263.19223,577.86255 Z M310.97778,538.8826C318.25714,536.9454,322.8361,533.7753,325.18427,529.02026C326.00613,527.3765,326.29965,525.498,326.29965,521.79956C326.29965,517.3968,326.12354,516.4575,324.71463,514.0506C320.4879,506.94733,311.6235,503.8947,293.01416,503.19025L282.56476,502.838L282.56476,521.79956L282.56476,540.7612L294.48175,540.40894C303.9919,540.1742,307.27936,539.8807,310.97778,538.8826 Z M306.5749,483.5829C318.0223,482.52618,325.18427,480.06058,330.17413,475.599C333.40295,472.66382,334.92926,469.43503,335.2815,464.79733C336.04462,453.58478,328.3543,446.77502,311.6235,443.9572C308.74698,443.4876,300.998,442.90054,294.48175,442.72443L282.56476,442.3722L282.56476,462.97754L282.56476,483.5829L284.2085,483.81772C287.55463,484.34604,300.1174,484.22864,306.5749,483.5829 Z"/> </g> <g style="fill:rgb(181,94,40); fill-opacity:0.05490196; stroke-linejoin: miter"> <path d="M300.11334,340.97958Q237.69022,342.07178,194.10617,384.7273Q150.89806,428.97644,150.0,490.7828Q150.7829,552.61255,193.7893,596.9152Q238.4801,640.2457,299.68372,640.9797Q301.07642,640.9572,302.45978,640.91406L302.46127,640.91406L302.46133,341.01703L302.46283,341.01703Q301.49335,340.9932,300.51965,340.98016L300.11334,340.97958 Z"/> </g> </g> </svg>