<?xml version="1.0" encoding="UTF-8"?>
<svg viewBox="0 0 744.09448819 1052.3622047" xmlns="http://www.w3.org/2000/svg">
 <defs>
  <filter id="a">
   <feGaussianBlur stdDeviation=".60942"/>
  </filter>
  <linearGradient id="f" x1="384.71" x2="384" y1="576.73" y2="517.13" gradientUnits="userSpaceOnUse">
   <stop stop-color="#ecac00" offset="0"/>
   <stop stop-color="#ecac00" stop-opacity="0" offset="1"/>
  </linearGradient>
  <linearGradient id="e" x1="428.54" x2="416.48" y1="507.21" y2="476.38" gradientUnits="userSpaceOnUse">
   <stop stop-color="#ffeb80" offset="0"/>
   <stop stop-color="#ffeb80" stop-opacity="0" offset="1"/>
  </linearGradient>
  <linearGradient id="d" x1="407.78" x2="413.81" y1="401.59" y2="405.94" gradientUnits="userSpaceOnUse">
   <stop stop-color="#ff9b00" offset="0"/>
   <stop stop-color="#ff9b00" stop-opacity="0" offset="1"/>
  </linearGradient>
  <linearGradient id="c" x1="383.31" x2="391.28" y1="406.53" y2="405.8" gradientUnits="userSpaceOnUse">
   <stop stop-color="#ffab00" offset="0"/>
   <stop stop-color="#ffab00" stop-opacity="0" offset="1"/>
  </linearGradient>
  <linearGradient id="b" x1="367.68" x2="372.75" y1="405.62" y2="401.14" gradientUnits="userSpaceOnUse">
   <stop stop-color="#ff9b00" offset="0"/>
   <stop stop-color="#ff8100" stop-opacity="0" offset="1"/>
  </linearGradient>
 </defs>
 <a transform="matrix(.98957 0 0 1.0259 -31.344 95.281)" fill="#ffd900">
  <path d="m368.71 292.73c72.495 31.249 51.553 33.06 41.866 37.557-376.48 174.79 251.81 180.6 84.689 40.378-26.299-22.042-65.196-54.141-26.428-79.414-8.288-7.8008-15.568-0.2494-19.063-6.0968-4.716-3.9046-14.615-7.4876-20.499-3.4228-4.2164 2.9125-9.7529 11.27-15.43 6.4268-3.9587-3.3773-16.787-8.2199-15.028-2.6894 1.7753 5.582-12.295 7.9107-14.705 7.1463-10.63-3.3713-11.666-0.09732-15.403 0.11526z" fill="#ffd900" fill-rule="evenodd" stroke="#000"/>
 </a>
 <path d="m367.5 545.36c13.862 10.7 103.27-4.1341 104.46-39.641-1.3813-21.462-52.147-34.891-63.226-37.05-6.3309-1.9-52.592 66.601-41.234 76.691z" fill="url(#e)" fill-rule="evenodd"/>
 <g transform="matrix(.98957 0 0 1.0259 2.6426 -15.61)">
  <text transform="matrix(1.0279 .20269 -.18466 .93646 0 0)" x="392.65906" y="504.93317" font-family="Bitstream Vera Sans" font-size="28.841">
   <tspan x="392.65906" y="504.93317">R</tspan>
  </text>
  <text transform="matrix(1.0043 .0061561 -.0098365 .99566 0 0)" x="355.73154" y="558.00134" font-family="Bitstream Vera Sans" font-size="27.474">
   <tspan x="355.73154" y="558.00134">O</tspan>
  </text>
  <text transform="matrix(1.0357 -.17571 .14204 .94144 0 0)" x="293.09531" y="643.44342" font-family="Bitstream Vera Sans" font-size="28.203">
   <tspan x="293.09531" y="643.44342">F</tspan>
  </text>
  <text transform="matrix(.92042,-.36127,.36194,.9444,0,0)" x="211.439" y="657.31372" font-family="Bitstream Vera Sans" font-size="26.625">
   <tspan x="211.439" y="657.31372">I</tspan>
  </text>
  <text transform="matrix(.83929,-.50409,.52591,.87562,0,0)" x="119.3468" y="680.31976" font-family="Bitstream Vera Sans" font-size="28.308">
   <tspan x="119.3468" y="680.31976">T</tspan>
  </text>
  <path d="m254.95 529.71c55.278 39.894 162.28 38.424 233.51-12.584 1.4034 6.9153 1.5296 14.909-5.3773 24.17-34.103 42.807-186.34 47.615-221.45 10.102-5.0732-6.2457-8.3842-11.159-6.6833-21.688z" fill="url(#f)" fill-rule="evenodd"/>
  <text transform="matrix(.94276,.41765,-.39281,.8867,0,0)" x="457.13092" y="394.19666" font-family="Bitstream Vera Sans" font-size="28.386">
   <tspan x="457.13092" y="394.19666">P</tspan>
  </text>
 </g>
 <path d="m383 427.47c5.5046 1.1326 28.178-1.8136 35.486-1.8136" fill="none" stroke="#000" stroke-linecap="round" stroke-width="3.0228"/>
 <path d="m382.25 423.58c6.1084 3.1964 30.73-1.7844 34.987-1.0364" fill="none" stroke="#000" stroke-linecap="round" stroke-width="3.0228"/>
 <path d="m350.01 396.25c13.658 2.8326 25.744 11.202 38.735 25.779-11.439-14.104-26.161-33.812-25.115-31.091-1.7211 3.0353-7.5651 5.0899-13.62 5.3114z" fill="url(#b)" fill-rule="evenodd"/>
 <path d="m377.62 391.42c7.0332 10.02 11 20.918 14.313 31.42-2.7781-17.886-2.0372-18.867-1.4137-34.992-3.4795 3.8016-7.9262 7.2078-12.9 3.5725z" fill="url(#c)" fill-rule="evenodd"/>
 <path d="m415.08 390.14c-0.29456 0.05168-10.961 16.854-13.43 31.969 5.4665-14.528 17.198-27.889 23.414-32.336-3.8155 0.86835-7.9317 1.8994-9.9841 0.36641z" fill="url(#d)" fill-rule="evenodd"/>
 <text transform="matrix(1.1049 .080037 -.21039 .88979 0 0)" x="418.70334" y="539.80591" font-family="Bitstream Vera Sans" font-size="92.119">
  <tspan x="418.70334" y="539.80591">$</tspan>
 </text>
 <path transform="matrix(.17794 0 0 .12819 378.09 578.66)" d="m366.16 142.1a56.677 35.036 0 1 1 -113.35 0 56.677 35.036 0 1 1 113.35 0z" fill="#686106" fill-rule="evenodd" stroke="#000" stroke-opacity=".11165" stroke-width="3.9"/>
 <path transform="matrix(.17794 0 0 .12819 378.01 577.78)" d="m366.16 142.1a56.677 35.036 0 1 1 -113.35 0 56.677 35.036 0 1 1 113.35 0z" fill="#ecda07" fill-rule="evenodd" stroke="#000" stroke-opacity=".11165" stroke-width="3.9"/>
 <path transform="matrix(.16197 0 0 .14083 377.52 578.92)" d="m332.62 105.55c0.5909 0.80375 1.0136 1.3954 1.2681 1.7749 0.46437 0.71892 0.75984 1.3954 0.88639 2.0294-0.97197 0.80231-2.0284 1.3724-3.1692 1.7102s-2.303 0.50685-3.4862 0.50682c-1.225 3e-5 -3.1049-0.25338-5.6397-0.76022s-4.4363-0.7602-5.7044-0.76023c-0.93026 3e-5 -1.7437 0.07408-2.4403 0.22214s-1.4676 0.43352-2.313 0.85619l-0.50682 0.44212c0 0.88714 0.17936 2.0492 0.53809 3.4862s0.771 3.0003 1.2368 4.6897c3.1688-2.2817 6.9502-3.4226 11.344-3.4226 2.1135 2e-5 4.2263 0.32748 6.3384 0.98236s4.0768 1.6693 5.8942 3.043 3.2537 3.0326 4.309 4.9765c0.71885 1.478 1.0783 3.0409 1.0783 4.6886-3e-5 1.3098-0.23224 2.7253-0.6966 4.2465-1.0568 2.2818-2.61 4.0143-4.6595 5.1976s-4.3202 1.7749-6.8118 1.7749c-4.2688 0-8.2201-0.52803-11.854-1.5841s-6.5911-2.6193-8.8714-4.6897l1.266-1.2681c0.67718-0.71888 1.2688-1.3954 1.7749-2.0294 0.67575-0.76058 1.4363-1.7742 2.2818-3.0409 0.46439-0.76057 1.1193-1.859 1.9647-3.2954 1.7325 1.1402 3.5707 2.0693 5.5146 2.7875s3.8662 1.0773 5.7669 1.0772c1.1833 1e-5 2.2292-0.11609 3.1379-0.3483s1.849-0.66532 2.8209-1.2994c0.80225-0.67574 1.2034-1.542 1.2034-2.5988-3e-5 -0.63405-0.12655-1.3098-0.37957-2.0273-0.38104-0.93022-0.65566-1.5851-0.82385-1.9647-1.1416-1.3529-2.5151-2.3252-4.1203-2.9169s-3.3799-0.88744-5.3237-0.88747c-0.67578 3e-5 -1.4047 0.03202-2.1869 0.09598s-1.6168 0.1801-2.5039 0.3483c-2.3235 1.0568-3.7598 1.7541-4.309 2.092-0.84542 0.54925-1.7332 1.289-2.6635 2.2192l-1.6477-7.6691c-0.88711-4.437-2.3659-8.3247-4.4363-11.663 1.3098-0.80224 2.7569-1.3619 4.3414-1.679s3.3277-0.47551 5.2299-0.47555c1.5628 4e-5 2.9888 0.0421 4.2777 0.12617s2.863 0.16862 4.722 0.2534c1.0136 4e-5 1.9324-0.08443 2.7562-0.2534s1.616-0.33748 2.3766-0.50574c0.33929 1.0137 0.6991 2.0381 1.0794 3.0732s0.7602 1.8483 1.1398 2.4392zm25.718-5.5124c5.9581 4e-5 11.261 3.0424 15.908 9.127 4.2687 5.6189 6.4031 11.428 6.4031 17.428-3e-5 4.1839-1.1625 7.6066-3.4873 10.268-2.5348 2.9158-6.0416 4.3737-10.52 4.3737-6.3392 0-11.431-2.4507-15.276-7.3521-3.5916-4.5635-5.3874-10.162-5.3874-16.796 0-4.5635 0.99278-8.4296 2.9784-11.599 2.2817-3.6332 5.4089-5.4498 9.3815-5.4499zm7.4793 27.379c2.6613 2e-5 4.9427-0.95071 6.8442-2.8522s2.8522-4.2037 2.8522-6.9067c-3e-5 -3.3385-1.6693-6.9516-5.0078-10.839-3.7181-4.309-7.7532-6.4635-12.105-6.4635-2.8727 4e-5 -5.1329 0.88715-6.7806 2.6613s-2.4716 4.1825-2.4715 7.2248c-1e-5 4.6052 1.6901 8.6191 5.0703 12.042s7.2464 5.134 11.599 5.1339z" fill="#ffdd54" filter="url(#a)" stroke="#837714"/>
 <path transform="matrix(.17794 0 0 .12819 340.03 563.34)" d="m366.16 142.1a56.677 35.036 0 1 1 -113.35 0 56.677 35.036 0 1 1 113.35 0z" fill="#686106" fill-rule="evenodd" stroke="#000" stroke-opacity=".11165" stroke-width="3.9"/>
 <path transform="matrix(.17794 0 0 .12819 339.95 562.46)" d="m366.16 142.1a56.677 35.036 0 1 1 -113.35 0 56.677 35.036 0 1 1 113.35 0z" fill="#ecda07" fill-rule="evenodd" stroke="#000" stroke-opacity=".11165" stroke-width="3.9"/>
 <path transform="matrix(.16197 0 0 .14083 339.46 563.6)" d="m332.62 105.55c0.5909 0.80375 1.0136 1.3954 1.2681 1.7749 0.46437 0.71892 0.75984 1.3954 0.88639 2.0294-0.97197 0.80231-2.0284 1.3724-3.1692 1.7102s-2.303 0.50685-3.4862 0.50682c-1.225 3e-5 -3.1049-0.25338-5.6397-0.76022s-4.4363-0.7602-5.7044-0.76023c-0.93026 3e-5 -1.7437 0.07408-2.4403 0.22214s-1.4676 0.43352-2.313 0.85619l-0.50682 0.44212c0 0.88714 0.17936 2.0492 0.53809 3.4862s0.771 3.0003 1.2368 4.6897c3.1688-2.2817 6.9502-3.4226 11.344-3.4226 2.1135 2e-5 4.2263 0.32748 6.3384 0.98236s4.0768 1.6693 5.8942 3.043 3.2537 3.0326 4.309 4.9765c0.71885 1.478 1.0783 3.0409 1.0783 4.6886-3e-5 1.3098-0.23224 2.7253-0.6966 4.2465-1.0568 2.2818-2.61 4.0143-4.6595 5.1976s-4.3202 1.7749-6.8118 1.7749c-4.2688 0-8.2201-0.52803-11.854-1.5841s-6.5911-2.6193-8.8714-4.6897l1.266-1.2681c0.67718-0.71888 1.2688-1.3954 1.7749-2.0294 0.67575-0.76058 1.4363-1.7742 2.2818-3.0409 0.46439-0.76057 1.1193-1.859 1.9647-3.2954 1.7325 1.1402 3.5707 2.0693 5.5146 2.7875s3.8662 1.0773 5.7669 1.0772c1.1833 1e-5 2.2292-0.11609 3.1379-0.3483s1.849-0.66532 2.8209-1.2994c0.80225-0.67574 1.2034-1.542 1.2034-2.5988-3e-5 -0.63405-0.12655-1.3098-0.37957-2.0273-0.38104-0.93022-0.65566-1.5851-0.82385-1.9647-1.1416-1.3529-2.5151-2.3252-4.1203-2.9169s-3.3799-0.88744-5.3237-0.88747c-0.67578 3e-5 -1.4047 0.03202-2.1869 0.09598s-1.6168 0.1801-2.5039 0.3483c-2.3235 1.0568-3.7598 1.7541-4.309 2.092-0.84542 0.54925-1.7332 1.289-2.6635 2.2192l-1.6477-7.6691c-0.88711-4.437-2.3659-8.3247-4.4363-11.663 1.3098-0.80224 2.7569-1.3619 4.3414-1.679s3.3277-0.47551 5.2299-0.47555c1.5628 4e-5 2.9888 0.0421 4.2777 0.12617s2.863 0.16862 4.722 0.2534c1.0136 4e-5 1.9324-0.08443 2.7562-0.2534s1.616-0.33748 2.3766-0.50574c0.33929 1.0137 0.6991 2.0381 1.0794 3.0732s0.7602 1.8483 1.1398 2.4392zm25.718-5.5124c5.9581 4e-5 11.261 3.0424 15.908 9.127 4.2687 5.6189 6.4031 11.428 6.4031 17.428-3e-5 4.1839-1.1625 7.6066-3.4873 10.268-2.5348 2.9158-6.0416 4.3737-10.52 4.3737-6.3392 0-11.431-2.4507-15.276-7.3521-3.5916-4.5635-5.3874-10.162-5.3874-16.796 0-4.5635 0.99278-8.4296 2.9784-11.599 2.2817-3.6332 5.4089-5.4498 9.3815-5.4499zm7.4793 27.379c2.6613 2e-5 4.9427-0.95071 6.8442-2.8522s2.8522-4.2037 2.8522-6.9067c-3e-5 -3.3385-1.6693-6.9516-5.0078-10.839-3.7181-4.309-7.7532-6.4635-12.105-6.4635-2.8727 4e-5 -5.1329 0.88715-6.7806 2.6613s-2.4716 4.1825-2.4715 7.2248c-1e-5 4.6052 1.6901 8.6191 5.0703 12.042s7.2464 5.134 11.599 5.1339z" fill="#ffdd54" filter="url(#a)" stroke="#837714"/>
 <path transform="matrix(.17794 0 0 .12819 326.43 578.66)" d="m366.16 142.1a56.677 35.036 0 1 1 -113.35 0 56.677 35.036 0 1 1 113.35 0z" fill="#686106" fill-rule="evenodd" stroke="#000" stroke-opacity=".11165" stroke-width="3.9"/>
 <path transform="matrix(.17794 0 0 .12819 326.35 577.78)" d="m366.16 142.1a56.677 35.036 0 1 1 -113.35 0 56.677 35.036 0 1 1 113.35 0z" fill="#ecda07" fill-rule="evenodd" stroke="#000" stroke-opacity=".11165" stroke-width="3.9"/>
 <path transform="matrix(.16197 0 0 .14083 325.86 578.92)" d="m332.62 105.55c0.5909 0.80375 1.0136 1.3954 1.2681 1.7749 0.46437 0.71892 0.75984 1.3954 0.88639 2.0294-0.97197 0.80231-2.0284 1.3724-3.1692 1.7102s-2.303 0.50685-3.4862 0.50682c-1.225 3e-5 -3.1049-0.25338-5.6397-0.76022s-4.4363-0.7602-5.7044-0.76023c-0.93026 3e-5 -1.7437 0.07408-2.4403 0.22214s-1.4676 0.43352-2.313 0.85619l-0.50682 0.44212c0 0.88714 0.17936 2.0492 0.53809 3.4862s0.771 3.0003 1.2368 4.6897c3.1688-2.2817 6.9502-3.4226 11.344-3.4226 2.1135 2e-5 4.2263 0.32748 6.3384 0.98236s4.0768 1.6693 5.8942 3.043 3.2537 3.0326 4.309 4.9765c0.71885 1.478 1.0783 3.0409 1.0783 4.6886-3e-5 1.3098-0.23224 2.7253-0.6966 4.2465-1.0568 2.2818-2.61 4.0143-4.6595 5.1976s-4.3202 1.7749-6.8118 1.7749c-4.2688 0-8.2201-0.52803-11.854-1.5841s-6.5911-2.6193-8.8714-4.6897l1.266-1.2681c0.67718-0.71888 1.2688-1.3954 1.7749-2.0294 0.67575-0.76058 1.4363-1.7742 2.2818-3.0409 0.46439-0.76057 1.1193-1.859 1.9647-3.2954 1.7325 1.1402 3.5707 2.0693 5.5146 2.7875s3.8662 1.0773 5.7669 1.0772c1.1833 1e-5 2.2292-0.11609 3.1379-0.3483s1.849-0.66532 2.8209-1.2994c0.80225-0.67574 1.2034-1.542 1.2034-2.5988-3e-5 -0.63405-0.12655-1.3098-0.37957-2.0273-0.38104-0.93022-0.65566-1.5851-0.82385-1.9647-1.1416-1.3529-2.5151-2.3252-4.1203-2.9169s-3.3799-0.88744-5.3237-0.88747c-0.67578 3e-5 -1.4047 0.03202-2.1869 0.09598s-1.6168 0.1801-2.5039 0.3483c-2.3235 1.0568-3.7598 1.7541-4.309 2.092-0.84542 0.54925-1.7332 1.289-2.6635 2.2192l-1.6477-7.6691c-0.88711-4.437-2.3659-8.3247-4.4363-11.663 1.3098-0.80224 2.7569-1.3619 4.3414-1.679s3.3277-0.47551 5.2299-0.47555c1.5628 4e-5 2.9888 0.0421 4.2777 0.12617s2.863 0.16862 4.722 0.2534c1.0136 4e-5 1.9324-0.08443 2.7562-0.2534s1.616-0.33748 2.3766-0.50574c0.33929 1.0137 0.6991 2.0381 1.0794 3.0732s0.7602 1.8483 1.1398 2.4392zm25.718-5.5124c5.9581 4e-5 11.261 3.0424 15.908 9.127 4.2687 5.6189 6.4031 11.428 6.4031 17.428-3e-5 4.1839-1.1625 7.6066-3.4873 10.268-2.5348 2.9158-6.0416 4.3737-10.52 4.3737-6.3392 0-11.431-2.4507-15.276-7.3521-3.5916-4.5635-5.3874-10.162-5.3874-16.796 0-4.5635 0.99278-8.4296 2.9784-11.599 2.2817-3.6332 5.4089-5.4498 9.3815-5.4499zm7.4793 27.379c2.6613 2e-5 4.9427-0.95071 6.8442-2.8522s2.8522-4.2037 2.8522-6.9067c-3e-5 -3.3385-1.6693-6.9516-5.0078-10.839-3.7181-4.309-7.7532-6.4635-12.105-6.4635-2.8727 4e-5 -5.1329 0.88715-6.7806 2.6613s-2.4716 4.1825-2.4715 7.2248c-1e-5 4.6052 1.6901 8.6191 5.0703 12.042s7.2464 5.134 11.599 5.1339z" fill="#ffdd54" filter="url(#a)" stroke="#837714"/>
 <path transform="matrix(.17794 0 0 .12819 392.78 571.59)" d="m366.16 142.1a56.677 35.036 0 1 1 -113.35 0 56.677 35.036 0 1 1 113.35 0z" fill="#686106" fill-rule="evenodd" stroke="#000" stroke-opacity=".11165" stroke-width="3.9"/>
 <path transform="matrix(.17794 0 0 .12819 392.69 570.71)" d="m366.16 142.1a56.677 35.036 0 1 1 -113.35 0 56.677 35.036 0 1 1 113.35 0z" fill="#ecda07" fill-rule="evenodd" stroke="#000" stroke-opacity=".11165" stroke-width="3.9"/>
 <path transform="matrix(.16197 0 0 .14083 392.2 571.85)" d="m332.62 105.55c0.5909 0.80375 1.0136 1.3954 1.2681 1.7749 0.46437 0.71892 0.75984 1.3954 0.88639 2.0294-0.97197 0.80231-2.0284 1.3724-3.1692 1.7102s-2.303 0.50685-3.4862 0.50682c-1.225 3e-5 -3.1049-0.25338-5.6397-0.76022s-4.4363-0.7602-5.7044-0.76023c-0.93026 3e-5 -1.7437 0.07408-2.4403 0.22214s-1.4676 0.43352-2.313 0.85619l-0.50682 0.44212c0 0.88714 0.17936 2.0492 0.53809 3.4862s0.771 3.0003 1.2368 4.6897c3.1688-2.2817 6.9502-3.4226 11.344-3.4226 2.1135 2e-5 4.2263 0.32748 6.3384 0.98236s4.0768 1.6693 5.8942 3.043 3.2537 3.0326 4.309 4.9765c0.71885 1.478 1.0783 3.0409 1.0783 4.6886-3e-5 1.3098-0.23224 2.7253-0.6966 4.2465-1.0568 2.2818-2.61 4.0143-4.6595 5.1976s-4.3202 1.7749-6.8118 1.7749c-4.2688 0-8.2201-0.52803-11.854-1.5841s-6.5911-2.6193-8.8714-4.6897l1.266-1.2681c0.67718-0.71888 1.2688-1.3954 1.7749-2.0294 0.67575-0.76058 1.4363-1.7742 2.2818-3.0409 0.46439-0.76057 1.1193-1.859 1.9647-3.2954 1.7325 1.1402 3.5707 2.0693 5.5146 2.7875s3.8662 1.0773 5.7669 1.0772c1.1833 1e-5 2.2292-0.11609 3.1379-0.3483s1.849-0.66532 2.8209-1.2994c0.80225-0.67574 1.2034-1.542 1.2034-2.5988-3e-5 -0.63405-0.12655-1.3098-0.37957-2.0273-0.38104-0.93022-0.65566-1.5851-0.82385-1.9647-1.1416-1.3529-2.5151-2.3252-4.1203-2.9169s-3.3799-0.88744-5.3237-0.88747c-0.67578 3e-5 -1.4047 0.03202-2.1869 0.09598s-1.6168 0.1801-2.5039 0.3483c-2.3235 1.0568-3.7598 1.7541-4.309 2.092-0.84542 0.54925-1.7332 1.289-2.6635 2.2192l-1.6477-7.6691c-0.88711-4.437-2.3659-8.3247-4.4363-11.663 1.3098-0.80224 2.7569-1.3619 4.3414-1.679s3.3277-0.47551 5.2299-0.47555c1.5628 4e-5 2.9888 0.0421 4.2777 0.12617s2.863 0.16862 4.722 0.2534c1.0136 4e-5 1.9324-0.08443 2.7562-0.2534s1.616-0.33748 2.3766-0.50574c0.33929 1.0137 0.6991 2.0381 1.0794 3.0732s0.7602 1.8483 1.1398 2.4392zm25.718-5.5124c5.9581 4e-5 11.261 3.0424 15.908 9.127 4.2687 5.6189 6.4031 11.428 6.4031 17.428-3e-5 4.1839-1.1625 7.6066-3.4873 10.268-2.5348 2.9158-6.0416 4.3737-10.52 4.3737-6.3392 0-11.431-2.4507-15.276-7.3521-3.5916-4.5635-5.3874-10.162-5.3874-16.796 0-4.5635 0.99278-8.4296 2.9784-11.599 2.2817-3.6332 5.4089-5.4498 9.3815-5.4499zm7.4793 27.379c2.6613 2e-5 4.9427-0.95071 6.8442-2.8522s2.8522-4.2037 2.8522-6.9067c-3e-5 -3.3385-1.6693-6.9516-5.0078-10.839-3.7181-4.309-7.7532-6.4635-12.105-6.4635-2.8727 4e-5 -5.1329 0.88715-6.7806 2.6613s-2.4716 4.1825-2.4715 7.2248c-1e-5 4.6052 1.6901 8.6191 5.0703 12.042s7.2464 5.134 11.599 5.1339z" fill="#ffdd54" filter="url(#a)" stroke="#837714"/>
 <path transform="matrix(.17794 0 0 .12819 427.58 560.1)" d="m366.16 142.1a56.677 35.036 0 1 1 -113.35 0 56.677 35.036 0 1 1 113.35 0z" fill="#686106" fill-rule="evenodd" stroke="#000" stroke-opacity=".11165" stroke-width="3.9"/>
 <path transform="matrix(.17794 0 0 .12819 427.5 559.22)" d="m366.16 142.1a56.677 35.036 0 1 1 -113.35 0 56.677 35.036 0 1 1 113.35 0z" fill="#ecda07" fill-rule="evenodd" stroke="#000" stroke-opacity=".11165" stroke-width="3.9"/>
 <path transform="matrix(.16197 0 0 .14083 427.01 560.36)" d="m332.62 105.55c0.5909 0.80375 1.0136 1.3954 1.2681 1.7749 0.46437 0.71892 0.75984 1.3954 0.88639 2.0294-0.97197 0.80231-2.0284 1.3724-3.1692 1.7102s-2.303 0.50685-3.4862 0.50682c-1.225 3e-5 -3.1049-0.25338-5.6397-0.76022s-4.4363-0.7602-5.7044-0.76023c-0.93026 3e-5 -1.7437 0.07408-2.4403 0.22214s-1.4676 0.43352-2.313 0.85619l-0.50682 0.44212c0 0.88714 0.17936 2.0492 0.53809 3.4862s0.771 3.0003 1.2368 4.6897c3.1688-2.2817 6.9502-3.4226 11.344-3.4226 2.1135 2e-5 4.2263 0.32748 6.3384 0.98236s4.0768 1.6693 5.8942 3.043 3.2537 3.0326 4.309 4.9765c0.71885 1.478 1.0783 3.0409 1.0783 4.6886-3e-5 1.3098-0.23224 2.7253-0.6966 4.2465-1.0568 2.2818-2.61 4.0143-4.6595 5.1976s-4.3202 1.7749-6.8118 1.7749c-4.2688 0-8.2201-0.52803-11.854-1.5841s-6.5911-2.6193-8.8714-4.6897l1.266-1.2681c0.67718-0.71888 1.2688-1.3954 1.7749-2.0294 0.67575-0.76058 1.4363-1.7742 2.2818-3.0409 0.46439-0.76057 1.1193-1.859 1.9647-3.2954 1.7325 1.1402 3.5707 2.0693 5.5146 2.7875s3.8662 1.0773 5.7669 1.0772c1.1833 1e-5 2.2292-0.11609 3.1379-0.3483s1.849-0.66532 2.8209-1.2994c0.80225-0.67574 1.2034-1.542 1.2034-2.5988-3e-5 -0.63405-0.12655-1.3098-0.37957-2.0273-0.38104-0.93022-0.65566-1.5851-0.82385-1.9647-1.1416-1.3529-2.5151-2.3252-4.1203-2.9169s-3.3799-0.88744-5.3237-0.88747c-0.67578 3e-5 -1.4047 0.03202-2.1869 0.09598s-1.6168 0.1801-2.5039 0.3483c-2.3235 1.0568-3.7598 1.7541-4.309 2.092-0.84542 0.54925-1.7332 1.289-2.6635 2.2192l-1.6477-7.6691c-0.88711-4.437-2.3659-8.3247-4.4363-11.663 1.3098-0.80224 2.7569-1.3619 4.3414-1.679s3.3277-0.47551 5.2299-0.47555c1.5628 4e-5 2.9888 0.0421 4.2777 0.12617s2.863 0.16862 4.722 0.2534c1.0136 4e-5 1.9324-0.08443 2.7562-0.2534s1.616-0.33748 2.3766-0.50574c0.33929 1.0137 0.6991 2.0381 1.0794 3.0732s0.7602 1.8483 1.1398 2.4392zm25.718-5.5124c5.9581 4e-5 11.261 3.0424 15.908 9.127 4.2687 5.6189 6.4031 11.428 6.4031 17.428-3e-5 4.1839-1.1625 7.6066-3.4873 10.268-2.5348 2.9158-6.0416 4.3737-10.52 4.3737-6.3392 0-11.431-2.4507-15.276-7.3521-3.5916-4.5635-5.3874-10.162-5.3874-16.796 0-4.5635 0.99278-8.4296 2.9784-11.599 2.2817-3.6332 5.4089-5.4498 9.3815-5.4499zm7.4793 27.379c2.6613 2e-5 4.9427-0.95071 6.8442-2.8522s2.8522-4.2037 2.8522-6.9067c-3e-5 -3.3385-1.6693-6.9516-5.0078-10.839-3.7181-4.309-7.7532-6.4635-12.105-6.4635-2.8727 4e-5 -5.1329 0.88715-6.7806 2.6613s-2.4716 4.1825-2.4715 7.2248c-1e-5 4.6052 1.6901 8.6191 5.0703 12.042s7.2464 5.134 11.599 5.1339z" fill="#ffdd54" filter="url(#a)" stroke="#837714"/>
 <path transform="matrix(.17794 0 0 .12819 416.7 558.92)" d="m366.16 142.1a56.677 35.036 0 1 1 -113.35 0 56.677 35.036 0 1 1 113.35 0z" fill="#686106" fill-rule="evenodd" stroke="#000" stroke-opacity=".11165" stroke-width="3.9"/>
 <path transform="matrix(.17794 0 0 .12819 416.62 558.04)" d="m366.16 142.1a56.677 35.036 0 1 1 -113.35 0 56.677 35.036 0 1 1 113.35 0z" fill="#ecda07" fill-rule="evenodd" stroke="#000" stroke-opacity=".11165" stroke-width="3.9"/>
 <path transform="matrix(.16197 0 0 .14083 416.13 559.18)" d="m332.62 105.55c0.5909 0.80375 1.0136 1.3954 1.2681 1.7749 0.46437 0.71892 0.75984 1.3954 0.88639 2.0294-0.97197 0.80231-2.0284 1.3724-3.1692 1.7102s-2.303 0.50685-3.4862 0.50682c-1.225 3e-5 -3.1049-0.25338-5.6397-0.76022s-4.4363-0.7602-5.7044-0.76023c-0.93026 3e-5 -1.7437 0.07408-2.4403 0.22214s-1.4676 0.43352-2.313 0.85619l-0.50682 0.44212c0 0.88714 0.17936 2.0492 0.53809 3.4862s0.771 3.0003 1.2368 4.6897c3.1688-2.2817 6.9502-3.4226 11.344-3.4226 2.1135 2e-5 4.2263 0.32748 6.3384 0.98236s4.0768 1.6693 5.8942 3.043 3.2537 3.0326 4.309 4.9765c0.71885 1.478 1.0783 3.0409 1.0783 4.6886-3e-5 1.3098-0.23224 2.7253-0.6966 4.2465-1.0568 2.2818-2.61 4.0143-4.6595 5.1976s-4.3202 1.7749-6.8118 1.7749c-4.2688 0-8.2201-0.52803-11.854-1.5841s-6.5911-2.6193-8.8714-4.6897l1.266-1.2681c0.67718-0.71888 1.2688-1.3954 1.7749-2.0294 0.67575-0.76058 1.4363-1.7742 2.2818-3.0409 0.46439-0.76057 1.1193-1.859 1.9647-3.2954 1.7325 1.1402 3.5707 2.0693 5.5146 2.7875s3.8662 1.0773 5.7669 1.0772c1.1833 1e-5 2.2292-0.11609 3.1379-0.3483s1.849-0.66532 2.8209-1.2994c0.80225-0.67574 1.2034-1.542 1.2034-2.5988-3e-5 -0.63405-0.12655-1.3098-0.37957-2.0273-0.38104-0.93022-0.65566-1.5851-0.82385-1.9647-1.1416-1.3529-2.5151-2.3252-4.1203-2.9169s-3.3799-0.88744-5.3237-0.88747c-0.67578 3e-5 -1.4047 0.03202-2.1869 0.09598s-1.6168 0.1801-2.5039 0.3483c-2.3235 1.0568-3.7598 1.7541-4.309 2.092-0.84542 0.54925-1.7332 1.289-2.6635 2.2192l-1.6477-7.6691c-0.88711-4.437-2.3659-8.3247-4.4363-11.663 1.3098-0.80224 2.7569-1.3619 4.3414-1.679s3.3277-0.47551 5.2299-0.47555c1.5628 4e-5 2.9888 0.0421 4.2777 0.12617s2.863 0.16862 4.722 0.2534c1.0136 4e-5 1.9324-0.08443 2.7562-0.2534s1.616-0.33748 2.3766-0.50574c0.33929 1.0137 0.6991 2.0381 1.0794 3.0732s0.7602 1.8483 1.1398 2.4392zm25.718-5.5124c5.9581 4e-5 11.261 3.0424 15.908 9.127 4.2687 5.6189 6.4031 11.428 6.4031 17.428-3e-5 4.1839-1.1625 7.6066-3.4873 10.268-2.5348 2.9158-6.0416 4.3737-10.52 4.3737-6.3392 0-11.431-2.4507-15.276-7.3521-3.5916-4.5635-5.3874-10.162-5.3874-16.796 0-4.5635 0.99278-8.4296 2.9784-11.599 2.2817-3.6332 5.4089-5.4498 9.3815-5.4499zm7.4793 27.379c2.6613 2e-5 4.9427-0.95071 6.8442-2.8522s2.8522-4.2037 2.8522-6.9067c-3e-5 -3.3385-1.6693-6.9516-5.0078-10.839-3.7181-4.309-7.7532-6.4635-12.105-6.4635-2.8727 4e-5 -5.1329 0.88715-6.7806 2.6613s-2.4716 4.1825-2.4715 7.2248c-1e-5 4.6052 1.6901 8.6191 5.0703 12.042s7.2464 5.134 11.599 5.1339z" fill="#ffdd54" filter="url(#a)" stroke="#837714"/>
 <path transform="matrix(.17794 0 0 .12819 409.09 563.93)" d="m366.16 142.1a56.677 35.036 0 1 1 -113.35 0 56.677 35.036 0 1 1 113.35 0z" fill="#686106" fill-rule="evenodd" stroke="#000" stroke-opacity=".11165" stroke-width="3.9"/>
 <path transform="matrix(.17794 0 0 .12819 409.01 563.05)" d="m366.16 142.1a56.677 35.036 0 1 1 -113.35 0 56.677 35.036 0 1 1 113.35 0z" fill="#ecda07" fill-rule="evenodd" stroke="#000" stroke-opacity=".11165" stroke-width="3.9"/>
 <path transform="matrix(.16197 0 0 .14083 408.52 564.19)" d="m332.62 105.55c0.5909 0.80375 1.0136 1.3954 1.2681 1.7749 0.46437 0.71892 0.75984 1.3954 0.88639 2.0294-0.97197 0.80231-2.0284 1.3724-3.1692 1.7102s-2.303 0.50685-3.4862 0.50682c-1.225 3e-5 -3.1049-0.25338-5.6397-0.76022s-4.4363-0.7602-5.7044-0.76023c-0.93026 3e-5 -1.7437 0.07408-2.4403 0.22214s-1.4676 0.43352-2.313 0.85619l-0.50682 0.44212c0 0.88714 0.17936 2.0492 0.53809 3.4862s0.771 3.0003 1.2368 4.6897c3.1688-2.2817 6.9502-3.4226 11.344-3.4226 2.1135 2e-5 4.2263 0.32748 6.3384 0.98236s4.0768 1.6693 5.8942 3.043 3.2537 3.0326 4.309 4.9765c0.71885 1.478 1.0783 3.0409 1.0783 4.6886-3e-5 1.3098-0.23224 2.7253-0.6966 4.2465-1.0568 2.2818-2.61 4.0143-4.6595 5.1976s-4.3202 1.7749-6.8118 1.7749c-4.2688 0-8.2201-0.52803-11.854-1.5841s-6.5911-2.6193-8.8714-4.6897l1.266-1.2681c0.67718-0.71888 1.2688-1.3954 1.7749-2.0294 0.67575-0.76058 1.4363-1.7742 2.2818-3.0409 0.46439-0.76057 1.1193-1.859 1.9647-3.2954 1.7325 1.1402 3.5707 2.0693 5.5146 2.7875s3.8662 1.0773 5.7669 1.0772c1.1833 1e-5 2.2292-0.11609 3.1379-0.3483s1.849-0.66532 2.8209-1.2994c0.80225-0.67574 1.2034-1.542 1.2034-2.5988-3e-5 -0.63405-0.12655-1.3098-0.37957-2.0273-0.38104-0.93022-0.65566-1.5851-0.82385-1.9647-1.1416-1.3529-2.5151-2.3252-4.1203-2.9169s-3.3799-0.88744-5.3237-0.88747c-0.67578 3e-5 -1.4047 0.03202-2.1869 0.09598s-1.6168 0.1801-2.5039 0.3483c-2.3235 1.0568-3.7598 1.7541-4.309 2.092-0.84542 0.54925-1.7332 1.289-2.6635 2.2192l-1.6477-7.6691c-0.88711-4.437-2.3659-8.3247-4.4363-11.663 1.3098-0.80224 2.7569-1.3619 4.3414-1.679s3.3277-0.47551 5.2299-0.47555c1.5628 4e-5 2.9888 0.0421 4.2777 0.12617s2.863 0.16862 4.722 0.2534c1.0136 4e-5 1.9324-0.08443 2.7562-0.2534s1.616-0.33748 2.3766-0.50574c0.33929 1.0137 0.6991 2.0381 1.0794 3.0732s0.7602 1.8483 1.1398 2.4392zm25.718-5.5124c5.9581 4e-5 11.261 3.0424 15.908 9.127 4.2687 5.6189 6.4031 11.428 6.4031 17.428-3e-5 4.1839-1.1625 7.6066-3.4873 10.268-2.5348 2.9158-6.0416 4.3737-10.52 4.3737-6.3392 0-11.431-2.4507-15.276-7.3521-3.5916-4.5635-5.3874-10.162-5.3874-16.796 0-4.5635 0.99278-8.4296 2.9784-11.599 2.2817-3.6332 5.4089-5.4498 9.3815-5.4499zm7.4793 27.379c2.6613 2e-5 4.9427-0.95071 6.8442-2.8522s2.8522-4.2037 2.8522-6.9067c-3e-5 -3.3385-1.6693-6.9516-5.0078-10.839-3.7181-4.309-7.7532-6.4635-12.105-6.4635-2.8727 4e-5 -5.1329 0.88715-6.7806 2.6613s-2.4716 4.1825-2.4715 7.2248c-1e-5 4.6052 1.6901 8.6191 5.0703 12.042s7.2464 5.134 11.599 5.1339z" fill="#ffdd54" filter="url(#a)" stroke="#837714"/>
 <path transform="matrix(.17164 0 0 .12819 417.31 550.09)" d="m366.16 142.1a56.677 35.036 0 1 1 -113.35 0 56.677 35.036 0 1 1 113.35 0z" fill="#686106" fill-rule="evenodd" stroke="#000" stroke-opacity=".11165" stroke-width="3.9"/>
 <path transform="matrix(.17164 0 0 .12819 417.23 549.2)" d="m366.16 142.1a56.677 35.036 0 1 1 -113.35 0 56.677 35.036 0 1 1 113.35 0z" fill="#ecda07" fill-rule="evenodd" stroke="#000" stroke-opacity=".11165" stroke-width="3.9"/>
 <path transform="matrix(.15624 0 0 .14083 416.76 550.34)" d="m332.62 105.55c0.5909 0.80375 1.0136 1.3954 1.2681 1.7749 0.46437 0.71892 0.75984 1.3954 0.88639 2.0294-0.97197 0.80231-2.0284 1.3724-3.1692 1.7102s-2.303 0.50685-3.4862 0.50682c-1.225 3e-5 -3.1049-0.25338-5.6397-0.76022s-4.4363-0.7602-5.7044-0.76023c-0.93026 3e-5 -1.7437 0.07408-2.4403 0.22214s-1.4676 0.43352-2.313 0.85619l-0.50682 0.44212c0 0.88714 0.17936 2.0492 0.53809 3.4862s0.771 3.0003 1.2368 4.6897c3.1688-2.2817 6.9502-3.4226 11.344-3.4226 2.1135 2e-5 4.2263 0.32748 6.3384 0.98236s4.0768 1.6693 5.8942 3.043 3.2537 3.0326 4.309 4.9765c0.71885 1.478 1.0783 3.0409 1.0783 4.6886-3e-5 1.3098-0.23224 2.7253-0.6966 4.2465-1.0568 2.2818-2.61 4.0143-4.6595 5.1976s-4.3202 1.7749-6.8118 1.7749c-4.2688 0-8.2201-0.52803-11.854-1.5841s-6.5911-2.6193-8.8714-4.6897l1.266-1.2681c0.67718-0.71888 1.2688-1.3954 1.7749-2.0294 0.67575-0.76058 1.4363-1.7742 2.2818-3.0409 0.46439-0.76057 1.1193-1.859 1.9647-3.2954 1.7325 1.1402 3.5707 2.0693 5.5146 2.7875s3.8662 1.0773 5.7669 1.0772c1.1833 1e-5 2.2292-0.11609 3.1379-0.3483s1.849-0.66532 2.8209-1.2994c0.80225-0.67574 1.2034-1.542 1.2034-2.5988-3e-5 -0.63405-0.12655-1.3098-0.37957-2.0273-0.38104-0.93022-0.65566-1.5851-0.82385-1.9647-1.1416-1.3529-2.5151-2.3252-4.1203-2.9169s-3.3799-0.88744-5.3237-0.88747c-0.67578 3e-5 -1.4047 0.03202-2.1869 0.09598s-1.6168 0.1801-2.5039 0.3483c-2.3235 1.0568-3.7598 1.7541-4.309 2.092-0.84542 0.54925-1.7332 1.289-2.6635 2.2192l-1.6477-7.6691c-0.88711-4.437-2.3659-8.3247-4.4363-11.663 1.3098-0.80224 2.7569-1.3619 4.3414-1.679s3.3277-0.47551 5.2299-0.47555c1.5628 4e-5 2.9888 0.0421 4.2777 0.12617s2.863 0.16862 4.722 0.2534c1.0136 4e-5 1.9324-0.08443 2.7562-0.2534s1.616-0.33748 2.3766-0.50574c0.33929 1.0137 0.6991 2.0381 1.0794 3.0732s0.7602 1.8483 1.1398 2.4392zm25.718-5.5124c5.9581 4e-5 11.261 3.0424 15.908 9.127 4.2687 5.6189 6.4031 11.428 6.4031 17.428-3e-5 4.1839-1.1625 7.6066-3.4873 10.268-2.5348 2.9158-6.0416 4.3737-10.52 4.3737-6.3392 0-11.431-2.4507-15.276-7.3521-3.5916-4.5635-5.3874-10.162-5.3874-16.796 0-4.5635 0.99278-8.4296 2.9784-11.599 2.2817-3.6332 5.4089-5.4498 9.3815-5.4499zm7.4793 27.379c2.6613 2e-5 4.9427-0.95071 6.8442-2.8522s2.8522-4.2037 2.8522-6.9067c-3e-5 -3.3385-1.6693-6.9516-5.0078-10.839-3.7181-4.309-7.7532-6.4635-12.105-6.4635-2.8727 4e-5 -5.1329 0.88715-6.7806 2.6613s-2.4716 4.1825-2.4715 7.2248c-1e-5 4.6052 1.6901 8.6191 5.0703 12.042s7.2464 5.134 11.599 5.1339z" fill="#ffdd54" filter="url(#a)" stroke="#837714"/>
 <path transform="matrix(.17794 0 0 .12819 373.74 560.69)" d="m366.16 142.1a56.677 35.036 0 1 1 -113.35 0 56.677 35.036 0 1 1 113.35 0z" fill="#686106" fill-rule="evenodd" stroke="#000" stroke-opacity=".11165" stroke-width="3.9"/>
 <path transform="matrix(.17794 0 0 .12819 373.66 559.81)" d="m366.16 142.1a56.677 35.036 0 1 1 -113.35 0 56.677 35.036 0 1 1 113.35 0z" fill="#ecda07" fill-rule="evenodd" stroke="#000" stroke-opacity=".11165" stroke-width="3.9"/>
 <path transform="matrix(.16197 0 0 .14083 373.17 560.95)" d="m332.62 105.55c0.5909 0.80375 1.0136 1.3954 1.2681 1.7749 0.46437 0.71892 0.75984 1.3954 0.88639 2.0294-0.97197 0.80231-2.0284 1.3724-3.1692 1.7102s-2.303 0.50685-3.4862 0.50682c-1.225 3e-5 -3.1049-0.25338-5.6397-0.76022s-4.4363-0.7602-5.7044-0.76023c-0.93026 3e-5 -1.7437 0.07408-2.4403 0.22214s-1.4676 0.43352-2.313 0.85619l-0.50682 0.44212c0 0.88714 0.17936 2.0492 0.53809 3.4862s0.771 3.0003 1.2368 4.6897c3.1688-2.2817 6.9502-3.4226 11.344-3.4226 2.1135 2e-5 4.2263 0.32748 6.3384 0.98236s4.0768 1.6693 5.8942 3.043 3.2537 3.0326 4.309 4.9765c0.71885 1.478 1.0783 3.0409 1.0783 4.6886-3e-5 1.3098-0.23224 2.7253-0.6966 4.2465-1.0568 2.2818-2.61 4.0143-4.6595 5.1976s-4.3202 1.7749-6.8118 1.7749c-4.2688 0-8.2201-0.52803-11.854-1.5841s-6.5911-2.6193-8.8714-4.6897l1.266-1.2681c0.67718-0.71888 1.2688-1.3954 1.7749-2.0294 0.67575-0.76058 1.4363-1.7742 2.2818-3.0409 0.46439-0.76057 1.1193-1.859 1.9647-3.2954 1.7325 1.1402 3.5707 2.0693 5.5146 2.7875s3.8662 1.0773 5.7669 1.0772c1.1833 1e-5 2.2292-0.11609 3.1379-0.3483s1.849-0.66532 2.8209-1.2994c0.80225-0.67574 1.2034-1.542 1.2034-2.5988-3e-5 -0.63405-0.12655-1.3098-0.37957-2.0273-0.38104-0.93022-0.65566-1.5851-0.82385-1.9647-1.1416-1.3529-2.5151-2.3252-4.1203-2.9169s-3.3799-0.88744-5.3237-0.88747c-0.67578 3e-5 -1.4047 0.03202-2.1869 0.09598s-1.6168 0.1801-2.5039 0.3483c-2.3235 1.0568-3.7598 1.7541-4.309 2.092-0.84542 0.54925-1.7332 1.289-2.6635 2.2192l-1.6477-7.6691c-0.88711-4.437-2.3659-8.3247-4.4363-11.663 1.3098-0.80224 2.7569-1.3619 4.3414-1.679s3.3277-0.47551 5.2299-0.47555c1.5628 4e-5 2.9888 0.0421 4.2777 0.12617s2.863 0.16862 4.722 0.2534c1.0136 4e-5 1.9324-0.08443 2.7562-0.2534s1.616-0.33748 2.3766-0.50574c0.33929 1.0137 0.6991 2.0381 1.0794 3.0732s0.7602 1.8483 1.1398 2.4392zm25.718-5.5124c5.9581 4e-5 11.261 3.0424 15.908 9.127 4.2687 5.6189 6.4031 11.428 6.4031 17.428-3e-5 4.1839-1.1625 7.6066-3.4873 10.268-2.5348 2.9158-6.0416 4.3737-10.52 4.3737-6.3392 0-11.431-2.4507-15.276-7.3521-3.5916-4.5635-5.3874-10.162-5.3874-16.796 0-4.5635 0.99278-8.4296 2.9784-11.599 2.2817-3.6332 5.4089-5.4498 9.3815-5.4499zm7.4793 27.379c2.6613 2e-5 4.9427-0.95071 6.8442-2.8522s2.8522-4.2037 2.8522-6.9067c-3e-5 -3.3385-1.6693-6.9516-5.0078-10.839-3.7181-4.309-7.7532-6.4635-12.105-6.4635-2.8727 4e-5 -5.1329 0.88715-6.7806 2.6613s-2.4716 4.1825-2.4715 7.2248c-1e-5 4.6052 1.6901 8.6191 5.0703 12.042s7.2464 5.134 11.599 5.1339z" fill="#ffdd54" filter="url(#a)" stroke="#837714"/>
 <path transform="matrix(.17794 0 0 .12819 327.52 567.17)" d="m366.16 142.1a56.677 35.036 0 1 1 -113.35 0 56.677 35.036 0 1 1 113.35 0z" fill="#686106" fill-rule="evenodd" stroke="#000" stroke-opacity=".11165" stroke-width="3.9"/>
 <path transform="matrix(.17794 0 0 .12819 327.44 566.29)" d="m366.16 142.1a56.677 35.036 0 1 1 -113.35 0 56.677 35.036 0 1 1 113.35 0z" fill="#ecda07" fill-rule="evenodd" stroke="#000" stroke-opacity=".11165" stroke-width="3.9"/>
 <path transform="matrix(.16197 0 0 .14083 326.95 567.43)" d="m332.62 105.55c0.5909 0.80375 1.0136 1.3954 1.2681 1.7749 0.46437 0.71892 0.75984 1.3954 0.88639 2.0294-0.97197 0.80231-2.0284 1.3724-3.1692 1.7102s-2.303 0.50685-3.4862 0.50682c-1.225 3e-5 -3.1049-0.25338-5.6397-0.76022s-4.4363-0.7602-5.7044-0.76023c-0.93026 3e-5 -1.7437 0.07408-2.4403 0.22214s-1.4676 0.43352-2.313 0.85619l-0.50682 0.44212c0 0.88714 0.17936 2.0492 0.53809 3.4862s0.771 3.0003 1.2368 4.6897c3.1688-2.2817 6.9502-3.4226 11.344-3.4226 2.1135 2e-5 4.2263 0.32748 6.3384 0.98236s4.0768 1.6693 5.8942 3.043 3.2537 3.0326 4.309 4.9765c0.71885 1.478 1.0783 3.0409 1.0783 4.6886-3e-5 1.3098-0.23224 2.7253-0.6966 4.2465-1.0568 2.2818-2.61 4.0143-4.6595 5.1976s-4.3202 1.7749-6.8118 1.7749c-4.2688 0-8.2201-0.52803-11.854-1.5841s-6.5911-2.6193-8.8714-4.6897l1.266-1.2681c0.67718-0.71888 1.2688-1.3954 1.7749-2.0294 0.67575-0.76058 1.4363-1.7742 2.2818-3.0409 0.46439-0.76057 1.1193-1.859 1.9647-3.2954 1.7325 1.1402 3.5707 2.0693 5.5146 2.7875s3.8662 1.0773 5.7669 1.0772c1.1833 1e-5 2.2292-0.11609 3.1379-0.3483s1.849-0.66532 2.8209-1.2994c0.80225-0.67574 1.2034-1.542 1.2034-2.5988-3e-5 -0.63405-0.12655-1.3098-0.37957-2.0273-0.38104-0.93022-0.65566-1.5851-0.82385-1.9647-1.1416-1.3529-2.5151-2.3252-4.1203-2.9169s-3.3799-0.88744-5.3237-0.88747c-0.67578 3e-5 -1.4047 0.03202-2.1869 0.09598s-1.6168 0.1801-2.5039 0.3483c-2.3235 1.0568-3.7598 1.7541-4.309 2.092-0.84542 0.54925-1.7332 1.289-2.6635 2.2192l-1.6477-7.6691c-0.88711-4.437-2.3659-8.3247-4.4363-11.663 1.3098-0.80224 2.7569-1.3619 4.3414-1.679s3.3277-0.47551 5.2299-0.47555c1.5628 4e-5 2.9888 0.0421 4.2777 0.12617s2.863 0.16862 4.722 0.2534c1.0136 4e-5 1.9324-0.08443 2.7562-0.2534s1.616-0.33748 2.3766-0.50574c0.33929 1.0137 0.6991 2.0381 1.0794 3.0732s0.7602 1.8483 1.1398 2.4392zm25.718-5.5124c5.9581 4e-5 11.261 3.0424 15.908 9.127 4.2687 5.6189 6.4031 11.428 6.4031 17.428-3e-5 4.1839-1.1625 7.6066-3.4873 10.268-2.5348 2.9158-6.0416 4.3737-10.52 4.3737-6.3392 0-11.431-2.4507-15.276-7.3521-3.5916-4.5635-5.3874-10.162-5.3874-16.796 0-4.5635 0.99278-8.4296 2.9784-11.599 2.2817-3.6332 5.4089-5.4498 9.3815-5.4499zm7.4793 27.379c2.6613 2e-5 4.9427-0.95071 6.8442-2.8522s2.8522-4.2037 2.8522-6.9067c-3e-5 -3.3385-1.6693-6.9516-5.0078-10.839-3.7181-4.309-7.7532-6.4635-12.105-6.4635-2.8727 4e-5 -5.1329 0.88715-6.7806 2.6613s-2.4716 4.1825-2.4715 7.2248c-1e-5 4.6052 1.6901 8.6191 5.0703 12.042s7.2464 5.134 11.599 5.1339z" fill="#ffdd54" filter="url(#a)" stroke="#837714"/>
 <path transform="matrix(.17794 0 0 .12819 348.73 564.23)" d="m366.16 142.1a56.677 35.036 0 1 1 -113.35 0 56.677 35.036 0 1 1 113.35 0z" fill="#686106" fill-rule="evenodd" stroke="#000" stroke-opacity=".11165" stroke-width="3.9"/>
 <path transform="matrix(.17794 0 0 .12819 348.65 563.34)" d="m366.16 142.1a56.677 35.036 0 1 1 -113.35 0 56.677 35.036 0 1 1 113.35 0z" fill="#ecda07" fill-rule="evenodd" stroke="#000" stroke-opacity=".11165" stroke-width="3.9"/>
 <path transform="matrix(.16197 0 0 .14083 348.16 564.48)" d="m332.62 105.55c0.5909 0.80375 1.0136 1.3954 1.2681 1.7749 0.46437 0.71892 0.75984 1.3954 0.88639 2.0294-0.97197 0.80231-2.0284 1.3724-3.1692 1.7102s-2.303 0.50685-3.4862 0.50682c-1.225 3e-5 -3.1049-0.25338-5.6397-0.76022s-4.4363-0.7602-5.7044-0.76023c-0.93026 3e-5 -1.7437 0.07408-2.4403 0.22214s-1.4676 0.43352-2.313 0.85619l-0.50682 0.44212c0 0.88714 0.17936 2.0492 0.53809 3.4862s0.771 3.0003 1.2368 4.6897c3.1688-2.2817 6.9502-3.4226 11.344-3.4226 2.1135 2e-5 4.2263 0.32748 6.3384 0.98236s4.0768 1.6693 5.8942 3.043 3.2537 3.0326 4.309 4.9765c0.71885 1.478 1.0783 3.0409 1.0783 4.6886-3e-5 1.3098-0.23224 2.7253-0.6966 4.2465-1.0568 2.2818-2.61 4.0143-4.6595 5.1976s-4.3202 1.7749-6.8118 1.7749c-4.2688 0-8.2201-0.52803-11.854-1.5841s-6.5911-2.6193-8.8714-4.6897l1.266-1.2681c0.67718-0.71888 1.2688-1.3954 1.7749-2.0294 0.67575-0.76058 1.4363-1.7742 2.2818-3.0409 0.46439-0.76057 1.1193-1.859 1.9647-3.2954 1.7325 1.1402 3.5707 2.0693 5.5146 2.7875s3.8662 1.0773 5.7669 1.0772c1.1833 1e-5 2.2292-0.11609 3.1379-0.3483s1.849-0.66532 2.8209-1.2994c0.80225-0.67574 1.2034-1.542 1.2034-2.5988-3e-5 -0.63405-0.12655-1.3098-0.37957-2.0273-0.38104-0.93022-0.65566-1.5851-0.82385-1.9647-1.1416-1.3529-2.5151-2.3252-4.1203-2.9169s-3.3799-0.88744-5.3237-0.88747c-0.67578 3e-5 -1.4047 0.03202-2.1869 0.09598s-1.6168 0.1801-2.5039 0.3483c-2.3235 1.0568-3.7598 1.7541-4.309 2.092-0.84542 0.54925-1.7332 1.289-2.6635 2.2192l-1.6477-7.6691c-0.88711-4.437-2.3659-8.3247-4.4363-11.663 1.3098-0.80224 2.7569-1.3619 4.3414-1.679s3.3277-0.47551 5.2299-0.47555c1.5628 4e-5 2.9888 0.0421 4.2777 0.12617s2.863 0.16862 4.722 0.2534c1.0136 4e-5 1.9324-0.08443 2.7562-0.2534s1.616-0.33748 2.3766-0.50574c0.33929 1.0137 0.6991 2.0381 1.0794 3.0732s0.7602 1.8483 1.1398 2.4392zm25.718-5.5124c5.9581 4e-5 11.261 3.0424 15.908 9.127 4.2687 5.6189 6.4031 11.428 6.4031 17.428-3e-5 4.1839-1.1625 7.6066-3.4873 10.268-2.5348 2.9158-6.0416 4.3737-10.52 4.3737-6.3392 0-11.431-2.4507-15.276-7.3521-3.5916-4.5635-5.3874-10.162-5.3874-16.796 0-4.5635 0.99278-8.4296 2.9784-11.599 2.2817-3.6332 5.4089-5.4498 9.3815-5.4499zm7.4793 27.379c2.6613 2e-5 4.9427-0.95071 6.8442-2.8522s2.8522-4.2037 2.8522-6.9067c-3e-5 -3.3385-1.6693-6.9516-5.0078-10.839-3.7181-4.309-7.7532-6.4635-12.105-6.4635-2.8727 4e-5 -5.1329 0.88715-6.7806 2.6613s-2.4716 4.1825-2.4715 7.2248c-1e-5 4.6052 1.6901 8.6191 5.0703 12.042s7.2464 5.134 11.599 5.1339z" fill="#ffdd54" filter="url(#a)" stroke="#837714"/>
 <path transform="matrix(.17794 0 0 .12819 361.24 564.52)" d="m366.16 142.1a56.677 35.036 0 1 1 -113.35 0 56.677 35.036 0 1 1 113.35 0z" fill="#686106" fill-rule="evenodd" stroke="#000" stroke-opacity=".11165" stroke-width="3.9"/>
 <path transform="matrix(.17794 0 0 .12819 361.15 563.64)" d="m366.16 142.1a56.677 35.036 0 1 1 -113.35 0 56.677 35.036 0 1 1 113.35 0z" fill="#ecda07" fill-rule="evenodd" stroke="#000" stroke-opacity=".11165" stroke-width="3.9"/>
 <path transform="matrix(.16197 0 0 .14083 360.66 564.78)" d="m332.62 105.55c0.5909 0.80375 1.0136 1.3954 1.2681 1.7749 0.46437 0.71892 0.75984 1.3954 0.88639 2.0294-0.97197 0.80231-2.0284 1.3724-3.1692 1.7102s-2.303 0.50685-3.4862 0.50682c-1.225 3e-5 -3.1049-0.25338-5.6397-0.76022s-4.4363-0.7602-5.7044-0.76023c-0.93026 3e-5 -1.7437 0.07408-2.4403 0.22214s-1.4676 0.43352-2.313 0.85619l-0.50682 0.44212c0 0.88714 0.17936 2.0492 0.53809 3.4862s0.771 3.0003 1.2368 4.6897c3.1688-2.2817 6.9502-3.4226 11.344-3.4226 2.1135 2e-5 4.2263 0.32748 6.3384 0.98236s4.0768 1.6693 5.8942 3.043 3.2537 3.0326 4.309 4.9765c0.71885 1.478 1.0783 3.0409 1.0783 4.6886-3e-5 1.3098-0.23224 2.7253-0.6966 4.2465-1.0568 2.2818-2.61 4.0143-4.6595 5.1976s-4.3202 1.7749-6.8118 1.7749c-4.2688 0-8.2201-0.52803-11.854-1.5841s-6.5911-2.6193-8.8714-4.6897l1.266-1.2681c0.67718-0.71888 1.2688-1.3954 1.7749-2.0294 0.67575-0.76058 1.4363-1.7742 2.2818-3.0409 0.46439-0.76057 1.1193-1.859 1.9647-3.2954 1.7325 1.1402 3.5707 2.0693 5.5146 2.7875s3.8662 1.0773 5.7669 1.0772c1.1833 1e-5 2.2292-0.11609 3.1379-0.3483s1.849-0.66532 2.8209-1.2994c0.80225-0.67574 1.2034-1.542 1.2034-2.5988-3e-5 -0.63405-0.12655-1.3098-0.37957-2.0273-0.38104-0.93022-0.65566-1.5851-0.82385-1.9647-1.1416-1.3529-2.5151-2.3252-4.1203-2.9169s-3.3799-0.88744-5.3237-0.88747c-0.67578 3e-5 -1.4047 0.03202-2.1869 0.09598s-1.6168 0.1801-2.5039 0.3483c-2.3235 1.0568-3.7598 1.7541-4.309 2.092-0.84542 0.54925-1.7332 1.289-2.6635 2.2192l-1.6477-7.6691c-0.88711-4.437-2.3659-8.3247-4.4363-11.663 1.3098-0.80224 2.7569-1.3619 4.3414-1.679s3.3277-0.47551 5.2299-0.47555c1.5628 4e-5 2.9888 0.0421 4.2777 0.12617s2.863 0.16862 4.722 0.2534c1.0136 4e-5 1.9324-0.08443 2.7562-0.2534s1.616-0.33748 2.3766-0.50574c0.33929 1.0137 0.6991 2.0381 1.0794 3.0732s0.7602 1.8483 1.1398 2.4392zm25.718-5.5124c5.9581 4e-5 11.261 3.0424 15.908 9.127 4.2687 5.6189 6.4031 11.428 6.4031 17.428-3e-5 4.1839-1.1625 7.6066-3.4873 10.268-2.5348 2.9158-6.0416 4.3737-10.52 4.3737-6.3392 0-11.431-2.4507-15.276-7.3521-3.5916-4.5635-5.3874-10.162-5.3874-16.796 0-4.5635 0.99278-8.4296 2.9784-11.599 2.2817-3.6332 5.4089-5.4498 9.3815-5.4499zm7.4793 27.379c2.6613 2e-5 4.9427-0.95071 6.8442-2.8522s2.8522-4.2037 2.8522-6.9067c-3e-5 -3.3385-1.6693-6.9516-5.0078-10.839-3.7181-4.309-7.7532-6.4635-12.105-6.4635-2.8727 4e-5 -5.1329 0.88715-6.7806 2.6613s-2.4716 4.1825-2.4715 7.2248c-1e-5 4.6052 1.6901 8.6191 5.0703 12.042s7.2464 5.134 11.599 5.1339z" fill="#ffdd54" filter="url(#a)" stroke="#837714"/>
 <path transform="matrix(.17794 0 0 .12819 345.47 574.54)" d="m366.16 142.1a56.677 35.036 0 1 1 -113.35 0 56.677 35.036 0 1 1 113.35 0z" fill="#686106" fill-rule="evenodd" stroke="#000" stroke-opacity=".11165" stroke-width="3.9"/>
 <path transform="matrix(.17794 0 0 .12819 345.38 573.66)" d="m366.16 142.1a56.677 35.036 0 1 1 -113.35 0 56.677 35.036 0 1 1 113.35 0z" fill="#ecda07" fill-rule="evenodd" stroke="#000" stroke-opacity=".11165" stroke-width="3.9"/>
 <path transform="matrix(.16197 0 0 .14083 344.89 574.79)" d="m332.62 105.55c0.5909 0.80375 1.0136 1.3954 1.2681 1.7749 0.46437 0.71892 0.75984 1.3954 0.88639 2.0294-0.97197 0.80231-2.0284 1.3724-3.1692 1.7102s-2.303 0.50685-3.4862 0.50682c-1.225 3e-5 -3.1049-0.25338-5.6397-0.76022s-4.4363-0.7602-5.7044-0.76023c-0.93026 3e-5 -1.7437 0.07408-2.4403 0.22214s-1.4676 0.43352-2.313 0.85619l-0.50682 0.44212c0 0.88714 0.17936 2.0492 0.53809 3.4862s0.771 3.0003 1.2368 4.6897c3.1688-2.2817 6.9502-3.4226 11.344-3.4226 2.1135 2e-5 4.2263 0.32748 6.3384 0.98236s4.0768 1.6693 5.8942 3.043 3.2537 3.0326 4.309 4.9765c0.71885 1.478 1.0783 3.0409 1.0783 4.6886-3e-5 1.3098-0.23224 2.7253-0.6966 4.2465-1.0568 2.2818-2.61 4.0143-4.6595 5.1976s-4.3202 1.7749-6.8118 1.7749c-4.2688 0-8.2201-0.52803-11.854-1.5841s-6.5911-2.6193-8.8714-4.6897l1.266-1.2681c0.67718-0.71888 1.2688-1.3954 1.7749-2.0294 0.67575-0.76058 1.4363-1.7742 2.2818-3.0409 0.46439-0.76057 1.1193-1.859 1.9647-3.2954 1.7325 1.1402 3.5707 2.0693 5.5146 2.7875s3.8662 1.0773 5.7669 1.0772c1.1833 1e-5 2.2292-0.11609 3.1379-0.3483s1.849-0.66532 2.8209-1.2994c0.80225-0.67574 1.2034-1.542 1.2034-2.5988-3e-5 -0.63405-0.12655-1.3098-0.37957-2.0273-0.38104-0.93022-0.65566-1.5851-0.82385-1.9647-1.1416-1.3529-2.5151-2.3252-4.1203-2.9169s-3.3799-0.88744-5.3237-0.88747c-0.67578 3e-5 -1.4047 0.03202-2.1869 0.09598s-1.6168 0.1801-2.5039 0.3483c-2.3235 1.0568-3.7598 1.7541-4.309 2.092-0.84542 0.54925-1.7332 1.289-2.6635 2.2192l-1.6477-7.6691c-0.88711-4.437-2.3659-8.3247-4.4363-11.663 1.3098-0.80224 2.7569-1.3619 4.3414-1.679s3.3277-0.47551 5.2299-0.47555c1.5628 4e-5 2.9888 0.0421 4.2777 0.12617s2.863 0.16862 4.722 0.2534c1.0136 4e-5 1.9324-0.08443 2.7562-0.2534s1.616-0.33748 2.3766-0.50574c0.33929 1.0137 0.6991 2.0381 1.0794 3.0732s0.7602 1.8483 1.1398 2.4392zm25.718-5.5124c5.9581 4e-5 11.261 3.0424 15.908 9.127 4.2687 5.6189 6.4031 11.428 6.4031 17.428-3e-5 4.1839-1.1625 7.6066-3.4873 10.268-2.5348 2.9158-6.0416 4.3737-10.52 4.3737-6.3392 0-11.431-2.4507-15.276-7.3521-3.5916-4.5635-5.3874-10.162-5.3874-16.796 0-4.5635 0.99278-8.4296 2.9784-11.599 2.2817-3.6332 5.4089-5.4498 9.3815-5.4499zm7.4793 27.379c2.6613 2e-5 4.9427-0.95071 6.8442-2.8522s2.8522-4.2037 2.8522-6.9067c-3e-5 -3.3385-1.6693-6.9516-5.0078-10.839-3.7181-4.309-7.7532-6.4635-12.105-6.4635-2.8727 4e-5 -5.1329 0.88715-6.7806 2.6613s-2.4716 4.1825-2.4715 7.2248c-1e-5 4.6052 1.6901 8.6191 5.0703 12.042s7.2464 5.134 11.599 5.1339z" fill="#ffdd54" filter="url(#a)" stroke="#837714"/>
 <path transform="matrix(.17794 0 0 .12819 370.48 570.71)" d="m366.16 142.1a56.677 35.036 0 1 1 -113.35 0 56.677 35.036 0 1 1 113.35 0z" fill="#686106" fill-rule="evenodd" stroke="#000" stroke-opacity=".11165" stroke-width="3.9"/>
 <path transform="matrix(.17794 0 0 .12819 370.4 569.83)" d="m366.16 142.1a56.677 35.036 0 1 1 -113.35 0 56.677 35.036 0 1 1 113.35 0z" fill="#ecda07" fill-rule="evenodd" stroke="#000" stroke-opacity=".11165" stroke-width="3.9"/>
 <path transform="matrix(.16197 0 0 .14083 369.91 570.96)" d="m332.62 105.55c0.5909 0.80375 1.0136 1.3954 1.2681 1.7749 0.46437 0.71892 0.75984 1.3954 0.88639 2.0294-0.97197 0.80231-2.0284 1.3724-3.1692 1.7102s-2.303 0.50685-3.4862 0.50682c-1.225 3e-5 -3.1049-0.25338-5.6397-0.76022s-4.4363-0.7602-5.7044-0.76023c-0.93026 3e-5 -1.7437 0.07408-2.4403 0.22214s-1.4676 0.43352-2.313 0.85619l-0.50682 0.44212c0 0.88714 0.17936 2.0492 0.53809 3.4862s0.771 3.0003 1.2368 4.6897c3.1688-2.2817 6.9502-3.4226 11.344-3.4226 2.1135 2e-5 4.2263 0.32748 6.3384 0.98236s4.0768 1.6693 5.8942 3.043 3.2537 3.0326 4.309 4.9765c0.71885 1.478 1.0783 3.0409 1.0783 4.6886-3e-5 1.3098-0.23224 2.7253-0.6966 4.2465-1.0568 2.2818-2.61 4.0143-4.6595 5.1976s-4.3202 1.7749-6.8118 1.7749c-4.2688 0-8.2201-0.52803-11.854-1.5841s-6.5911-2.6193-8.8714-4.6897l1.266-1.2681c0.67718-0.71888 1.2688-1.3954 1.7749-2.0294 0.67575-0.76058 1.4363-1.7742 2.2818-3.0409 0.46439-0.76057 1.1193-1.859 1.9647-3.2954 1.7325 1.1402 3.5707 2.0693 5.5146 2.7875s3.8662 1.0773 5.7669 1.0772c1.1833 1e-5 2.2292-0.11609 3.1379-0.3483s1.849-0.66532 2.8209-1.2994c0.80225-0.67574 1.2034-1.542 1.2034-2.5988-3e-5 -0.63405-0.12655-1.3098-0.37957-2.0273-0.38104-0.93022-0.65566-1.5851-0.82385-1.9647-1.1416-1.3529-2.5151-2.3252-4.1203-2.9169s-3.3799-0.88744-5.3237-0.88747c-0.67578 3e-5 -1.4047 0.03202-2.1869 0.09598s-1.6168 0.1801-2.5039 0.3483c-2.3235 1.0568-3.7598 1.7541-4.309 2.092-0.84542 0.54925-1.7332 1.289-2.6635 2.2192l-1.6477-7.6691c-0.88711-4.437-2.3659-8.3247-4.4363-11.663 1.3098-0.80224 2.7569-1.3619 4.3414-1.679s3.3277-0.47551 5.2299-0.47555c1.5628 4e-5 2.9888 0.0421 4.2777 0.12617s2.863 0.16862 4.722 0.2534c1.0136 4e-5 1.9324-0.08443 2.7562-0.2534s1.616-0.33748 2.3766-0.50574c0.33929 1.0137 0.6991 2.0381 1.0794 3.0732s0.7602 1.8483 1.1398 2.4392zm25.718-5.5124c5.9581 4e-5 11.261 3.0424 15.908 9.127 4.2687 5.6189 6.4031 11.428 6.4031 17.428-3e-5 4.1839-1.1625 7.6066-3.4873 10.268-2.5348 2.9158-6.0416 4.3737-10.52 4.3737-6.3392 0-11.431-2.4507-15.276-7.3521-3.5916-4.5635-5.3874-10.162-5.3874-16.796 0-4.5635 0.99278-8.4296 2.9784-11.599 2.2817-3.6332 5.4089-5.4498 9.3815-5.4499zm7.4793 27.379c2.6613 2e-5 4.9427-0.95071 6.8442-2.8522s2.8522-4.2037 2.8522-6.9067c-3e-5 -3.3385-1.6693-6.9516-5.0078-10.839-3.7181-4.309-7.7532-6.4635-12.105-6.4635-2.8727 4e-5 -5.1329 0.88715-6.7806 2.6613s-2.4716 4.1825-2.4715 7.2248c-1e-5 4.6052 1.6901 8.6191 5.0703 12.042s7.2464 5.134 11.599 5.1339z" fill="#ffdd54" filter="url(#a)" stroke="#837714"/>
 <path transform="matrix(.17794 0 0 .12819 386.8 559.22)" d="m366.16 142.1a56.677 35.036 0 1 1 -113.35 0 56.677 35.036 0 1 1 113.35 0z" fill="#686106" fill-rule="evenodd" stroke="#000" stroke-opacity=".11165" stroke-width="3.9"/>
 <path transform="matrix(.17794 0 0 .12819 386.71 558.34)" d="m366.16 142.1a56.677 35.036 0 1 1 -113.35 0 56.677 35.036 0 1 1 113.35 0z" fill="#ecda07" fill-rule="evenodd" stroke="#000" stroke-opacity=".11165" stroke-width="3.9"/>
 <path transform="matrix(.16197 0 0 .14083 386.22 559.47)" d="m332.62 105.55c0.5909 0.80375 1.0136 1.3954 1.2681 1.7749 0.46437 0.71892 0.75984 1.3954 0.88639 2.0294-0.97197 0.80231-2.0284 1.3724-3.1692 1.7102s-2.303 0.50685-3.4862 0.50682c-1.225 3e-5 -3.1049-0.25338-5.6397-0.76022s-4.4363-0.7602-5.7044-0.76023c-0.93026 3e-5 -1.7437 0.07408-2.4403 0.22214s-1.4676 0.43352-2.313 0.85619l-0.50682 0.44212c0 0.88714 0.17936 2.0492 0.53809 3.4862s0.771 3.0003 1.2368 4.6897c3.1688-2.2817 6.9502-3.4226 11.344-3.4226 2.1135 2e-5 4.2263 0.32748 6.3384 0.98236s4.0768 1.6693 5.8942 3.043 3.2537 3.0326 4.309 4.9765c0.71885 1.478 1.0783 3.0409 1.0783 4.6886-3e-5 1.3098-0.23224 2.7253-0.6966 4.2465-1.0568 2.2818-2.61 4.0143-4.6595 5.1976s-4.3202 1.7749-6.8118 1.7749c-4.2688 0-8.2201-0.52803-11.854-1.5841s-6.5911-2.6193-8.8714-4.6897l1.266-1.2681c0.67718-0.71888 1.2688-1.3954 1.7749-2.0294 0.67575-0.76058 1.4363-1.7742 2.2818-3.0409 0.46439-0.76057 1.1193-1.859 1.9647-3.2954 1.7325 1.1402 3.5707 2.0693 5.5146 2.7875s3.8662 1.0773 5.7669 1.0772c1.1833 1e-5 2.2292-0.11609 3.1379-0.3483s1.849-0.66532 2.8209-1.2994c0.80225-0.67574 1.2034-1.542 1.2034-2.5988-3e-5 -0.63405-0.12655-1.3098-0.37957-2.0273-0.38104-0.93022-0.65566-1.5851-0.82385-1.9647-1.1416-1.3529-2.5151-2.3252-4.1203-2.9169s-3.3799-0.88744-5.3237-0.88747c-0.67578 3e-5 -1.4047 0.03202-2.1869 0.09598s-1.6168 0.1801-2.5039 0.3483c-2.3235 1.0568-3.7598 1.7541-4.309 2.092-0.84542 0.54925-1.7332 1.289-2.6635 2.2192l-1.6477-7.6691c-0.88711-4.437-2.3659-8.3247-4.4363-11.663 1.3098-0.80224 2.7569-1.3619 4.3414-1.679s3.3277-0.47551 5.2299-0.47555c1.5628 4e-5 2.9888 0.0421 4.2777 0.12617s2.863 0.16862 4.722 0.2534c1.0136 4e-5 1.9324-0.08443 2.7562-0.2534s1.616-0.33748 2.3766-0.50574c0.33929 1.0137 0.6991 2.0381 1.0794 3.0732s0.7602 1.8483 1.1398 2.4392zm25.718-5.5124c5.9581 4e-5 11.261 3.0424 15.908 9.127 4.2687 5.6189 6.4031 11.428 6.4031 17.428-3e-5 4.1839-1.1625 7.6066-3.4873 10.268-2.5348 2.9158-6.0416 4.3737-10.52 4.3737-6.3392 0-11.431-2.4507-15.276-7.3521-3.5916-4.5635-5.3874-10.162-5.3874-16.796 0-4.5635 0.99278-8.4296 2.9784-11.599 2.2817-3.6332 5.4089-5.4498 9.3815-5.4499zm7.4793 27.379c2.6613 2e-5 4.9427-0.95071 6.8442-2.8522s2.8522-4.2037 2.8522-6.9067c-3e-5 -3.3385-1.6693-6.9516-5.0078-10.839-3.7181-4.309-7.7532-6.4635-12.105-6.4635-2.8727 4e-5 -5.1329 0.88715-6.7806 2.6613s-2.4716 4.1825-2.4715 7.2248c-1e-5 4.6052 1.6901 8.6191 5.0703 12.042s7.2464 5.134 11.599 5.1339z" fill="#ffdd54" filter="url(#a)" stroke="#837714"/>
 <path transform="matrix(.17794 0 0 .12819 398.22 556.57)" d="m366.16 142.1a56.677 35.036 0 1 1 -113.35 0 56.677 35.036 0 1 1 113.35 0z" fill="#686106" fill-rule="evenodd" stroke="#000" stroke-opacity=".11165" stroke-width="3.9"/>
 <path transform="matrix(.17794 0 0 .12819 398.13 555.69)" d="m366.16 142.1a56.677 35.036 0 1 1 -113.35 0 56.677 35.036 0 1 1 113.35 0z" fill="#ecda07" fill-rule="evenodd" stroke="#000" stroke-opacity=".11165" stroke-width="3.9"/>
 <path transform="matrix(.16197 0 0 .14083 397.64 556.82)" d="m332.62 105.55c0.5909 0.80375 1.0136 1.3954 1.2681 1.7749 0.46437 0.71892 0.75984 1.3954 0.88639 2.0294-0.97197 0.80231-2.0284 1.3724-3.1692 1.7102s-2.303 0.50685-3.4862 0.50682c-1.225 3e-5 -3.1049-0.25338-5.6397-0.76022s-4.4363-0.7602-5.7044-0.76023c-0.93026 3e-5 -1.7437 0.07408-2.4403 0.22214s-1.4676 0.43352-2.313 0.85619l-0.50682 0.44212c0 0.88714 0.17936 2.0492 0.53809 3.4862s0.771 3.0003 1.2368 4.6897c3.1688-2.2817 6.9502-3.4226 11.344-3.4226 2.1135 2e-5 4.2263 0.32748 6.3384 0.98236s4.0768 1.6693 5.8942 3.043 3.2537 3.0326 4.309 4.9765c0.71885 1.478 1.0783 3.0409 1.0783 4.6886-3e-5 1.3098-0.23224 2.7253-0.6966 4.2465-1.0568 2.2818-2.61 4.0143-4.6595 5.1976s-4.3202 1.7749-6.8118 1.7749c-4.2688 0-8.2201-0.52803-11.854-1.5841s-6.5911-2.6193-8.8714-4.6897l1.266-1.2681c0.67718-0.71888 1.2688-1.3954 1.7749-2.0294 0.67575-0.76058 1.4363-1.7742 2.2818-3.0409 0.46439-0.76057 1.1193-1.859 1.9647-3.2954 1.7325 1.1402 3.5707 2.0693 5.5146 2.7875s3.8662 1.0773 5.7669 1.0772c1.1833 1e-5 2.2292-0.11609 3.1379-0.3483s1.849-0.66532 2.8209-1.2994c0.80225-0.67574 1.2034-1.542 1.2034-2.5988-3e-5 -0.63405-0.12655-1.3098-0.37957-2.0273-0.38104-0.93022-0.65566-1.5851-0.82385-1.9647-1.1416-1.3529-2.5151-2.3252-4.1203-2.9169s-3.3799-0.88744-5.3237-0.88747c-0.67578 3e-5 -1.4047 0.03202-2.1869 0.09598s-1.6168 0.1801-2.5039 0.3483c-2.3235 1.0568-3.7598 1.7541-4.309 2.092-0.84542 0.54925-1.7332 1.289-2.6635 2.2192l-1.6477-7.6691c-0.88711-4.437-2.3659-8.3247-4.4363-11.663 1.3098-0.80224 2.7569-1.3619 4.3414-1.679s3.3277-0.47551 5.2299-0.47555c1.5628 4e-5 2.9888 0.0421 4.2777 0.12617s2.863 0.16862 4.722 0.2534c1.0136 4e-5 1.9324-0.08443 2.7562-0.2534s1.616-0.33748 2.3766-0.50574c0.33929 1.0137 0.6991 2.0381 1.0794 3.0732s0.7602 1.8483 1.1398 2.4392zm25.718-5.5124c5.9581 4e-5 11.261 3.0424 15.908 9.127 4.2687 5.6189 6.4031 11.428 6.4031 17.428-3e-5 4.1839-1.1625 7.6066-3.4873 10.268-2.5348 2.9158-6.0416 4.3737-10.52 4.3737-6.3392 0-11.431-2.4507-15.276-7.3521-3.5916-4.5635-5.3874-10.162-5.3874-16.796 0-4.5635 0.99278-8.4296 2.9784-11.599 2.2817-3.6332 5.4089-5.4498 9.3815-5.4499zm7.4793 27.379c2.6613 2e-5 4.9427-0.95071 6.8442-2.8522s2.8522-4.2037 2.8522-6.9067c-3e-5 -3.3385-1.6693-6.9516-5.0078-10.839-3.7181-4.309-7.7532-6.4635-12.105-6.4635-2.8727 4e-5 -5.1329 0.88715-6.7806 2.6613s-2.4716 4.1825-2.4715 7.2248c-1e-5 4.6052 1.6901 8.6191 5.0703 12.042s7.2464 5.134 11.599 5.1339z" fill="#ffdd54" filter="url(#a)" stroke="#837714"/>
 <path transform="matrix(.17794 0 0 .12819 300.33 568.64)" d="m366.16 142.1a56.677 35.036 0 1 1 -113.35 0 56.677 35.036 0 1 1 113.35 0z" fill="#686106" fill-rule="evenodd" stroke="#000" stroke-opacity=".11165" stroke-width="3.9"/>
 <path transform="matrix(.17794 0 0 .12819 300.25 567.76)" d="m366.16 142.1a56.677 35.036 0 1 1 -113.35 0 56.677 35.036 0 1 1 113.35 0z" fill="#ecda07" fill-rule="evenodd" stroke="#000" stroke-opacity=".11165" stroke-width="3.9"/>
 <path transform="matrix(.16197 0 0 .14083 299.76 568.9)" d="m332.62 105.55c0.5909 0.80375 1.0136 1.3954 1.2681 1.7749 0.46437 0.71892 0.75984 1.3954 0.88639 2.0294-0.97197 0.80231-2.0284 1.3724-3.1692 1.7102s-2.303 0.50685-3.4862 0.50682c-1.225 3e-5 -3.1049-0.25338-5.6397-0.76022s-4.4363-0.7602-5.7044-0.76023c-0.93026 3e-5 -1.7437 0.07408-2.4403 0.22214s-1.4676 0.43352-2.313 0.85619l-0.50682 0.44212c0 0.88714 0.17936 2.0492 0.53809 3.4862s0.771 3.0003 1.2368 4.6897c3.1688-2.2817 6.9502-3.4226 11.344-3.4226 2.1135 2e-5 4.2263 0.32748 6.3384 0.98236s4.0768 1.6693 5.8942 3.043 3.2537 3.0326 4.309 4.9765c0.71885 1.478 1.0783 3.0409 1.0783 4.6886-3e-5 1.3098-0.23224 2.7253-0.6966 4.2465-1.0568 2.2818-2.61 4.0143-4.6595 5.1976s-4.3202 1.7749-6.8118 1.7749c-4.2688 0-8.2201-0.52803-11.854-1.5841s-6.5911-2.6193-8.8714-4.6897l1.266-1.2681c0.67718-0.71888 1.2688-1.3954 1.7749-2.0294 0.67575-0.76058 1.4363-1.7742 2.2818-3.0409 0.46439-0.76057 1.1193-1.859 1.9647-3.2954 1.7325 1.1402 3.5707 2.0693 5.5146 2.7875s3.8662 1.0773 5.7669 1.0772c1.1833 1e-5 2.2292-0.11609 3.1379-0.3483s1.849-0.66532 2.8209-1.2994c0.80225-0.67574 1.2034-1.542 1.2034-2.5988-3e-5 -0.63405-0.12655-1.3098-0.37957-2.0273-0.38104-0.93022-0.65566-1.5851-0.82385-1.9647-1.1416-1.3529-2.5151-2.3252-4.1203-2.9169s-3.3799-0.88744-5.3237-0.88747c-0.67578 3e-5 -1.4047 0.03202-2.1869 0.09598s-1.6168 0.1801-2.5039 0.3483c-2.3235 1.0568-3.7598 1.7541-4.309 2.092-0.84542 0.54925-1.7332 1.289-2.6635 2.2192l-1.6477-7.6691c-0.88711-4.437-2.3659-8.3247-4.4363-11.663 1.3098-0.80224 2.7569-1.3619 4.3414-1.679s3.3277-0.47551 5.2299-0.47555c1.5628 4e-5 2.9888 0.0421 4.2777 0.12617s2.863 0.16862 4.722 0.2534c1.0136 4e-5 1.9324-0.08443 2.7562-0.2534s1.616-0.33748 2.3766-0.50574c0.33929 1.0137 0.6991 2.0381 1.0794 3.0732s0.7602 1.8483 1.1398 2.4392zm25.718-5.5124c5.9581 4e-5 11.261 3.0424 15.908 9.127 4.2687 5.6189 6.4031 11.428 6.4031 17.428-3e-5 4.1839-1.1625 7.6066-3.4873 10.268-2.5348 2.9158-6.0416 4.3737-10.52 4.3737-6.3392 0-11.431-2.4507-15.276-7.3521-3.5916-4.5635-5.3874-10.162-5.3874-16.796 0-4.5635 0.99278-8.4296 2.9784-11.599 2.2817-3.6332 5.4089-5.4498 9.3815-5.4499zm7.4793 27.379c2.6613 2e-5 4.9427-0.95071 6.8442-2.8522s2.8522-4.2037 2.8522-6.9067c-3e-5 -3.3385-1.6693-6.9516-5.0078-10.839-3.7181-4.309-7.7532-6.4635-12.105-6.4635-2.8727 4e-5 -5.1329 0.88715-6.7806 2.6613s-2.4716 4.1825-2.4715 7.2248c-1e-5 4.6052 1.6901 8.6191 5.0703 12.042s7.2464 5.134 11.599 5.1339z" fill="#ffdd54" filter="url(#a)" stroke="#837714"/>
 <path transform="matrix(.17794 0 0 .12819 315.56 569.53)" d="m366.16 142.1a56.677 35.036 0 1 1 -113.35 0 56.677 35.036 0 1 1 113.35 0z" fill="#686106" fill-rule="evenodd" stroke="#000" stroke-opacity=".11165" stroke-width="3.9"/>
 <path transform="matrix(.17794 0 0 .12819 315.48 568.65)" d="m366.16 142.1a56.677 35.036 0 1 1 -113.35 0 56.677 35.036 0 1 1 113.35 0z" fill="#ecda07" fill-rule="evenodd" stroke="#000" stroke-opacity=".11165" stroke-width="3.9"/>
 <path transform="matrix(.16197 0 0 .14083 314.98 569.78)" d="m332.62 105.55c0.5909 0.80375 1.0136 1.3954 1.2681 1.7749 0.46437 0.71892 0.75984 1.3954 0.88639 2.0294-0.97197 0.80231-2.0284 1.3724-3.1692 1.7102s-2.303 0.50685-3.4862 0.50682c-1.225 3e-5 -3.1049-0.25338-5.6397-0.76022s-4.4363-0.7602-5.7044-0.76023c-0.93026 3e-5 -1.7437 0.07408-2.4403 0.22214s-1.4676 0.43352-2.313 0.85619l-0.50682 0.44212c0 0.88714 0.17936 2.0492 0.53809 3.4862s0.771 3.0003 1.2368 4.6897c3.1688-2.2817 6.9502-3.4226 11.344-3.4226 2.1135 2e-5 4.2263 0.32748 6.3384 0.98236s4.0768 1.6693 5.8942 3.043 3.2537 3.0326 4.309 4.9765c0.71885 1.478 1.0783 3.0409 1.0783 4.6886-3e-5 1.3098-0.23224 2.7253-0.6966 4.2465-1.0568 2.2818-2.61 4.0143-4.6595 5.1976s-4.3202 1.7749-6.8118 1.7749c-4.2688 0-8.2201-0.52803-11.854-1.5841s-6.5911-2.6193-8.8714-4.6897l1.266-1.2681c0.67718-0.71888 1.2688-1.3954 1.7749-2.0294 0.67575-0.76058 1.4363-1.7742 2.2818-3.0409 0.46439-0.76057 1.1193-1.859 1.9647-3.2954 1.7325 1.1402 3.5707 2.0693 5.5146 2.7875s3.8662 1.0773 5.7669 1.0772c1.1833 1e-5 2.2292-0.11609 3.1379-0.3483s1.849-0.66532 2.8209-1.2994c0.80225-0.67574 1.2034-1.542 1.2034-2.5988-3e-5 -0.63405-0.12655-1.3098-0.37957-2.0273-0.38104-0.93022-0.65566-1.5851-0.82385-1.9647-1.1416-1.3529-2.5151-2.3252-4.1203-2.9169s-3.3799-0.88744-5.3237-0.88747c-0.67578 3e-5 -1.4047 0.03202-2.1869 0.09598s-1.6168 0.1801-2.5039 0.3483c-2.3235 1.0568-3.7598 1.7541-4.309 2.092-0.84542 0.54925-1.7332 1.289-2.6635 2.2192l-1.6477-7.6691c-0.88711-4.437-2.3659-8.3247-4.4363-11.663 1.3098-0.80224 2.7569-1.3619 4.3414-1.679s3.3277-0.47551 5.2299-0.47555c1.5628 4e-5 2.9888 0.0421 4.2777 0.12617s2.863 0.16862 4.722 0.2534c1.0136 4e-5 1.9324-0.08443 2.7562-0.2534s1.616-0.33748 2.3766-0.50574c0.33929 1.0137 0.6991 2.0381 1.0794 3.0732s0.7602 1.8483 1.1398 2.4392zm25.718-5.5124c5.9581 4e-5 11.261 3.0424 15.908 9.127 4.2687 5.6189 6.4031 11.428 6.4031 17.428-3e-5 4.1839-1.1625 7.6066-3.4873 10.268-2.5348 2.9158-6.0416 4.3737-10.52 4.3737-6.3392 0-11.431-2.4507-15.276-7.3521-3.5916-4.5635-5.3874-10.162-5.3874-16.796 0-4.5635 0.99278-8.4296 2.9784-11.599 2.2817-3.6332 5.4089-5.4498 9.3815-5.4499zm7.4793 27.379c2.6613 2e-5 4.9427-0.95071 6.8442-2.8522s2.8522-4.2037 2.8522-6.9067c-3e-5 -3.3385-1.6693-6.9516-5.0078-10.839-3.7181-4.309-7.7532-6.4635-12.105-6.4635-2.8727 4e-5 -5.1329 0.88715-6.7806 2.6613s-2.4716 4.1825-2.4715 7.2248c-1e-5 4.6052 1.6901 8.6191 5.0703 12.042s7.2464 5.134 11.599 5.1339z" fill="#ffdd54" filter="url(#a)" stroke="#837714"/>
</svg>
