<?xml version="1.0" ?><svg width="48px" height="48px" viewBox="0 0 48 48" data-name="Layer 1" id="Layer_1" xmlns="http://www.w3.org/2000/svg"><defs><style>.cls-1{fill:none;stroke:#000;stroke-linecap:round;stroke-miterlimit:10;stroke-width:2px;}</style></defs><title/><path class="cls-1" d="M25,23a3,3,0,1,1,2.1-5.14A3,3,0,0,1,28,20"/><path class="cls-1" d="M25,23a3,3,0,1,1-3,3"/><line class="cls-1" x1="25" x2="25" y1="16" y2="17"/><line class="cls-1" x1="25" x2="25" y1="30" y2="29"/><rect class="cls-1" height="46" rx="5" ry="5" width="30" x="10" y="1"/><circle class="cls-1" cx="25" cy="23" r="10"/><path class="cls-1" d="M34,1a2.74,2.74,0,0,1,0,.5A3.46,3.46,0,0,1,33,4,3.46,3.46,0,0,1,30.5,5h-11A3.5,3.5,0,0,1,16,1.5,2.74,2.74,0,0,1,16,1"/></svg>