<?xml version="1.0" ?><svg width="48px" height="48px" viewBox="0 0 48 48" data-name="Layer 1" id="Layer_1" xmlns="http://www.w3.org/2000/svg"><defs><style>.cls-1{fill:none;stroke:#000;stroke-linecap:round;stroke-miterlimit:10;stroke-width:2px;}</style></defs><title/><path class="cls-1" d="M18,35l-.63,5.57A3.43,3.43,0,0,0,20.8,44h7.51a3.44,3.44,0,0,0,3.43-3.43L31,34c0-2,1.53-3.47,3-4.74A14.41,14.41,0,0,0,39,17C38.59,9.17,32.6,2.4,24.78,2,15.88,1.58,9,9.2,9,18a14.06,14.06,0,0,0,5.57,11.74C16.34,31.1,18,32.77,18,35Z"/><path class="cls-1" d="M24,17a3,3,0,1,1,2.1-5.14A3,3,0,0,1,27,14"/><path class="cls-1" d="M24,17a3,3,0,1,1-3,3"/><line class="cls-1" x1="24" x2="24" y1="10" y2="11"/><line class="cls-1" x1="24" x2="24" y1="24" y2="23"/><circle class="cls-1" cx="24" cy="17" r="10"/><line class="cls-1" x1="18" x2="31" y1="35" y2="35"/><line class="cls-1" x1="18" x2="31" y1="38" y2="38"/><line class="cls-1" x1="18" x2="31" y1="41" y2="41"/></svg>