<?xml version="1.0" ?><svg width="64px" height="64px" viewBox="0 0 64 64" id="Layer_1_1_" style="enable-background:new 0 0 64 64;" version="1.1" xml:space="preserve" xmlns="http://www.w3.org/2000/svg" xmlns:xlink="http://www.w3.org/1999/xlink"><path d="M63.059,40.525c0-3.109-2.088-5.877-5.077-6.73l-8.923-2.549v-2.61c1.093-0.999,1.938-2.261,2.435-3.688  c1.222-0.123,2.373-0.668,3.206-1.585c0.836-0.919,1.269-2.125,1.272-3.363H56v-6c0-7.168-5.832-13-13-13S30,6.832,30,14v6h0.028  c0.003,1.239,0.437,2.444,1.272,3.363c0.833,0.916,1.984,1.461,3.206,1.585c0.506,1.453,1.372,2.734,2.494,3.741v2.557l-8.923,2.549  C25.088,34.648,23,37.416,23,40.525v5.296c-0.633-0.162-1.231-0.466-1.707-0.942l-2.172-2.172C18.409,41.994,18,41.008,18,40  s0.409-1.994,1.121-2.707l1.173-1.174c1.1-1.099,1.706-2.561,1.706-4.116v-0.191c0-1.41-0.512-2.771-1.44-3.833l-4.366-4.99  C15.087,21.725,13.491,21,11.812,21c-1.411,0-2.772,0.512-3.834,1.44l-3.773,3.302C2.168,27.524,1,30.098,1,32.804  c0,1.608,0.417,3.199,1.205,4.601c5.267,9.363,12.896,17.274,22.064,22.877l2.25,1.375C27.958,62.535,29.609,63,31.296,63  c2.643,0,5.156-1.141,6.895-3.129l3.368-3.85C42.488,54.96,43,53.599,43,52.188c0-0.403-0.044-0.801-0.125-1.188h20.184V40.525z   M52.18,34.218l-3.468,6.241l-4.231-3.526l3.823-3.823L52.18,34.218z M53.22,22.018c-0.345,0.379-0.785,0.646-1.262,0.808  C51.983,22.553,52,22.279,52,22v-4.785c1.076,0.408,1.878,1.356,1.986,2.487C54.068,20.562,53.796,21.385,53.22,22.018z M43,3  c6.065,0,11,4.935,11,11v2.085C53.115,15.415,52.016,15,50.828,15h-0.585c-2.469,0-4.79-0.961-6.536-2.707L43,11.586l-0.707,0.707  C40.547,14.039,38.226,15,35.757,15H35v0.003c-1.123,0.036-2.158,0.444-3,1.082V14C32,7.935,36.935,3,43,3z M32.78,22.018  c-0.576-0.633-0.848-1.455-0.766-2.315c0.108-1.131,0.91-2.079,1.986-2.487V22c0,0.279,0.017,0.553,0.042,0.826  C33.565,22.663,33.125,22.397,32.78,22.018z M36,22v-5.011c2.59-0.055,5.037-0.973,7-2.632c1.963,1.659,4.41,2.577,7,2.632V22  c0,3.859-3.14,7-7,7S36,25.859,36,22z M43,31c1.461,0,2.837-0.357,4.059-0.978v1.505L43,35.586l-4-4V30.05  C40.207,30.653,41.562,31,43,31z M37.709,33.123l3.81,3.81l-4.231,3.526l-3.459-6.227L37.709,33.123z M14.688,24.305l4.366,4.99  C19.664,29.992,20,30.886,20,31.812v0.191c0,0.464-0.092,0.911-0.25,1.334l-9.828-9.829C10.495,23.18,11.144,23,11.812,23  C12.914,23,13.962,23.476,14.688,24.305z M36.687,58.555C35.327,60.108,33.362,61,31.296,61c-1.319,0-2.61-0.363-3.734-1.051  l-2.25-1.375C16.436,53.149,9.048,45.49,3.948,36.424C3.328,35.321,3,34.069,3,32.804c0-2.129,0.919-4.154,2.521-5.556l2.834-2.479  L18.586,35l-0.878,0.879C16.622,36.964,16,38.466,16,40s0.622,3.036,1.707,4.121l2.172,2.172C20.979,47.394,22.443,48,24,48  s3.021-0.606,4.121-1.707L29,45.414l10.232,10.232L36.687,58.555z M40.493,54.079l-9.829-9.829c0.422-0.157,0.87-0.25,1.334-0.25  h0.19c0.926,0,1.82,0.336,2.517,0.946l4.99,4.366C40.524,50.037,41,51.086,41,52.188C41,52.857,40.819,53.506,40.493,54.079z   M61.059,49h-6.029v-7h-2v7H42.04c-0.287-0.437-0.627-0.842-1.028-1.193l-4.989-4.366C34.96,42.512,33.599,42,32.188,42h-0.19  c-1.555,0-3.017,0.605-4.117,1.705l-1.173,1.174c-0.477,0.476-1.074,0.78-1.707,0.942v-5.296c0-2.221,1.491-4.197,3.626-4.807  l3.228-0.922l4.858,8.745L42,39.135V47h2v-7.865l5.288,4.406l4.866-8.759l3.279,0.937c2.135,0.609,3.626,2.586,3.626,4.807V49z"/></svg>